<svg width="33" height="28" viewBox="0 0 33 28" fill="none" xmlns="http://www.w3.org/2000/svg">
<path d="M4.99153 16.1526C4.37691 5.93446 13.2505 2.89976 17.188 3.76408C12.2902 -3.91871 -1.63489 5.78081 1.43825 16.1526C4.40352 26.1603 17.0167 21.1525 18.1483 20.2821C19.3967 19.3217 23.5262 15.7684 21.2214 11.927C17.4569 20.3013 8.83293 18.2333 4.99153 16.1526Z" stroke="white"/>
<path d="M27.6326 11.7095C27.867 21.9434 18.8866 24.6462 14.9841 23.6361C19.5929 31.4956 33.8689 22.3204 31.1834 11.8416C28.5922 1.73055 15.8016 6.26601 14.6384 7.09381C13.3552 8.00709 9.09641 11.4044 11.2568 15.3288C15.3301 7.10031 23.8712 9.48741 27.6326 11.7095Z" stroke="white"/>
</svg>
