<?xml version="1.0" standalone="no"?>
<!DOCTYPE svg PUBLIC "-//W3C//DTD SVG 1.1//EN" "http://www.w3.org/Graphics/SVG/1.1/DTD/svg11.dtd" >
<!--
Created with mf2outline.
-->
<svg xmlns="http://www.w3.org/2000/svg" xmlns:xlink="http://www.w3.org/1999/xlink" version="1.1">
<metadata>
Created by FontForge 20201107 at Sat Sep 23 17:45:17 2023
 By 
Copyright (c) 2023, Metaflop (http://www.metaflop.com), Simon Egli, Marco Mueller, Alexis Reigel, with Reserved Font Name Bespoke. Dual licensed under the GPL v3 (http://www.gnu.org/copyleft/gpl.html) and the OFL v1.1 (http://scripts.sil.org/OFL_web).
</metadata>
<defs>
<font id="Bespoke-qC_WedRY3J" horiz-adv-x="722" >
  <font-face 
    font-family="Bespoke"
    font-weight="500"
    font-stretch="normal"
    units-per-em="1000"
    panose-1="2 0 5 3 0 0 0 0 0 0"
    ascent="800"
    descent="-200"
    x-height="598"
    cap-height="920"
    bbox="-148 -327 1402 1203"
    underline-thickness="50"
    underline-position="-100"
    unicode-range="U+0020-FB04"
  />
    <missing-glyph />
    <glyph glyph-name="fi" unicode="fi" horiz-adv-x="714" 
d="M63 508l-2 90h63l-3 144c0 11 -1 22 -1 34c0 57 6 113 45 152c47 47 121 47 190 47h10c69 0 143 0 192 -47c23 -22 35 -49 42 -79l-156 -33c-3 15 -7 29 -13 40c-12 22 -38 29 -63 29h-10c-25 0 -52 -7 -63 -29c-12 -22 -13 -55 -13 -87v-27l3 -144h327l12 -598h-160
l-10 508h-167l10 -508h-160l-11 508h-62z" />
    <glyph glyph-name="guillemotright" unicode="&#x3e;&#x3e;" horiz-adv-x="714" 
d="M351 299l-106 -299h-177l107 299l-119 299h177zM640 299l-106 -299h-177l106 299l-118 299h177z" />
    <glyph glyph-name="guillemotleft" unicode="&#x3c;&#x3c;" horiz-adv-x="714" 
d="M239 299l118 -299h-176l-119 299l107 299h176zM528 299l118 -299h-177l-118 299l107 299h176z" />
    <glyph glyph-name="quotedblright" unicode="&#x2019;&#x2019;" horiz-adv-x="699" 
d="M81 621l98 299h168l-141 -299h-125zM442 920h166l-141 -299h-123z" />
    <glyph glyph-name="exclamdown" unicode="&#x21;&#x2018;" horiz-adv-x="495" 
d="M173 -300l-12 588h161l11 -588h-160zM247 426h-16c-29 0 -60 1 -80 21c-22 22 -23 54 -23 88v16c0 26 2 52 20 70c21 22 55 22 86 22s66 0 88 -22s23 -54 23 -87v-16c0 -26 -2 -53 -20 -71c-19 -20 -49 -21 -78 -21z" />
    <glyph glyph-name="fl" unicode="fl" horiz-adv-x="752" 
d="M311 885c-29 0 -31 -26 -31 -56v-16l4 -215h95l1 -90h-94l10 -508h-160l-10 508h-63l-2 90h63l-4 215v17c0 43 5 86 36 113c38 32 99 32 153 32h40l-1 -134c-2 24 -9 44 -33 44h-4zM501 0l-19 950h160l19 -950h-160z" />
    <glyph glyph-name="questiondown" unicode="&#x3f;&#x2018;" horiz-adv-x="654" 
d="M287 288h160l3 -149h-87c-34 0 -69 -8 -85 -37s-19 -72 -19 -114v-26c0 -58 1 -120 25 -160c17 -29 52 -37 86 -37h14c34 0 68 8 84 37c7 12 11 26 14 42l86 -138c-51 -31 -118 -31 -182 -31h-14c-77 0 -160 0 -214 55s-56 143 -58 222c0 14 -1 28 -1 42
c0 67 7 134 50 180c36 38 86 49 139 53zM372 426h-16c-29 0 -59 1 -79 21c-23 23 -24 59 -24 95v9c0 26 2 52 20 70c21 22 56 22 87 22s65 0 87 -22c23 -23 24 -58 24 -94v-9c0 -26 -3 -53 -21 -71c-19 -20 -49 -21 -78 -21z" />
    <glyph glyph-name="endash" unicode="&#x2d;&#x2d;" horiz-adv-x="714" 
d="M41 254l-2 90h623l2 -90h-623z" />
    <glyph glyph-name="emdash" unicode="&#x2013;&#x2d;" horiz-adv-x="1246" 
d="M41 254l-2 90h1155l2 -90h-1155z" />
    <glyph glyph-name="quotedblleft" unicode="&#x2018;&#x2018;" horiz-adv-x="699" 
d="M59 621l141 299h125l-97 -299h-169zM463 920h124l-98 -299h-167z" />
    <glyph glyph-name="ring" unicode="&#x2da;" horiz-adv-x="319" 
d="M145 890h-6c-14 0 -29 -1 -37 -12c-7 -10 -8 -26 -8 -40v-10c0 -19 1 -37 10 -50c8 -11 23 -12 37 -12h6c14 0 29 1 37 12c7 10 8 26 8 40v10c0 19 -1 37 -10 50c-8 11 -23 12 -37 12zM144 950c43 0 91 0 122 -24s33 -67 33 -109c0 -33 -4 -67 -29 -87
c-30 -24 -79 -24 -122 -24h-5c-43 0 -92 0 -123 24s-33 67 -33 109c0 33 4 67 29 87c30 24 79 24 122 24h6z" />
    <glyph glyph-name="rcaron" unicode="&#x159;" horiz-adv-x="426" 
d="M91 0l-12 598h149c29 19 69 25 107 25h12c75 0 156 -3 206 -59c52 -59 54 -152 56 -236h-160c-1 56 -3 123 -23 164c-14 28 -45 41 -77 41h-12c-32 0 -63 -13 -76 -41c-14 -31 -17 -77 -17 -121c0 -15 1 -29 1 -43l6 -328h-160zM323 912h142l-89 -184h-192l-96 184h142
l48 -60z" />
    <glyph glyph-name="Eng" unicode="&#x14a;" horiz-adv-x="950" 
d="M106 0l-18 920h102l488 -669l-13 669h160l21 -1038v-23c0 -54 -6 -108 -45 -143c-47 -41 -122 -41 -190 -41h-10c-68 0 -143 0 -192 41c-14 12 -24 27 -31 42l144 65c3 -13 6 -25 13 -35c14 -20 40 -23 64 -23h10c24 0 50 3 63 23c12 19 14 47 14 74v20l-4 200l-429 587
l14 -669h-161z" />
    <glyph glyph-name="Q" unicode="Q" horiz-adv-x="1064" 
d="M533 855h-36c-86 0 -179 -10 -227 -79c-44 -63 -51 -157 -51 -248v-68c2 -110 5 -237 64 -316c51 -69 143 -79 229 -79h37c57 0 117 4 165 27l-230 218h209l112 -106c19 56 22 122 22 188c0 23 -1 46 -1 68c-2 110 -4 237 -63 316c-51 69 -144 79 -230 79zM531 945
c130 0 270 -2 359 -97c91 -97 93 -250 96 -388c0 -25 1 -50 1 -75c0 -106 -8 -213 -65 -292l98 -93h-209l-5 5c-77 -29 -168 -30 -255 -30h-37c-130 0 -269 2 -358 97c-91 97 -94 250 -97 388c0 25 -1 50 -1 75c0 116 11 233 83 313c85 95 224 97 354 97h36z" />
    <glyph glyph-name="Abreve" unicode="&#x102;" horiz-adv-x="844" 
d="M15 0l337 920h102l374 -920h-173l-88 218h-374l-81 -218h-97zM622 1154v-12c0 -44 -6 -89 -40 -115c-42 -32 -111 -32 -170 -32h-10c-59 0 -128 0 -171 32c-38 28 -45 79 -46 127h129c0 -23 1 -47 18 -63s44 -16 68 -16h11c24 0 50 0 67 16c14 13 16 32 16 52v11h128z
M530 308l-160 394l-145 -394h305z" />
    <glyph glyph-name="i" unicode="i" horiz-adv-x="289" 
d="M64 0l-12 598h161l11 -598h-160zM139 641h-16c-30 0 -61 1 -82 22c-24 24 -25 61 -25 98v9c0 27 3 54 21 73c22 23 58 23 90 23s67 0 90 -23c24 -24 25 -60 25 -97v-9c0 -27 -3 -55 -21 -74c-20 -21 -52 -22 -82 -22z" />
    <glyph glyph-name="quoteright" unicode="&#x2019;" horiz-adv-x="388" 
d="M152 920h167l-142 -299h-124z" />
    <glyph glyph-name="Gbreve" unicode="&#x11e;" horiz-adv-x="1087" 
d="M996 0h-161l-1 49c-70 -71 -180 -74 -283 -74h-37c-130 0 -269 2 -358 97c-91 97 -94 250 -97 388c0 25 -1 50 -1 75c0 116 11 233 83 313c85 95 224 97 354 97h36c130 0 270 -2 359 -97c22 -23 38 -50 51 -78l-144 -62c-9 25 -19 48 -34 68c-51 69 -144 79 -230 79h-36
c-86 0 -179 -10 -227 -79c-44 -63 -51 -157 -51 -248v-68c2 -110 5 -237 64 -316c51 -69 143 -79 229 -79h37c83 0 173 2 227 63c46 52 52 129 52 204v49l-1 34h-303l-2 90h464zM732 1154c0 -4 1 -8 1 -12c0 -44 -7 -89 -41 -115c-42 -32 -110 -32 -169 -32h-11
c-59 0 -128 0 -171 32c-38 28 -44 79 -45 127h128c0 -23 1 -47 18 -63s44 -16 68 -16h11c24 0 51 0 68 16c14 13 15 32 15 52v11h128z" />
    <glyph glyph-name="Ohungarumlaut" unicode="&#x150;" horiz-adv-x="1064" 
d="M306 989l107 184h201l-159 -184h-149zM641 1173h201l-159 -184h-149zM533 855h-36c-86 0 -179 -10 -227 -79c-44 -63 -51 -157 -51 -248v-68c2 -110 5 -237 64 -316c51 -69 143 -79 229 -79h37c86 0 178 10 226 79c44 63 52 157 52 248c0 23 -1 46 -1 68
c-2 110 -4 237 -63 316c-51 69 -144 79 -230 79zM531 945c130 0 270 -2 359 -97c91 -97 93 -250 96 -388c0 -25 1 -50 1 -75c0 -116 -10 -233 -82 -313c-85 -95 -224 -97 -354 -97h-37c-130 0 -269 2 -358 97c-91 97 -94 250 -97 388c0 25 -1 50 -1 75c0 116 11 233 83 313
c85 95 224 97 354 97h36z" />
    <glyph glyph-name="racute" unicode="&#x155;" horiz-adv-x="426" 
d="M91 0l-12 598h149c29 19 69 25 107 25h12c75 0 156 -3 206 -59c52 -59 54 -152 56 -236h-160c-1 56 -3 123 -23 164c-14 28 -45 41 -77 41h-12c-32 0 -63 -13 -76 -41c-14 -31 -17 -77 -17 -121c0 -15 1 -29 1 -43l6 -328h-160zM298 912h208l-172 -184h-154z" />
    <glyph glyph-name="udieresis" unicode="&#xfc;" 
d="M619 598l12 -598h-145c-33 -22 -78 -25 -121 -25h-14c-76 0 -161 0 -215 50c-54 49 -56 128 -57 200l-7 373h160l7 -373c1 -44 2 -96 24 -128c18 -27 53 -32 86 -32h14c33 0 67 5 84 32c16 25 19 63 19 100v28l-7 373h160zM215 641h-16c-30 0 -61 1 -82 22
c-24 24 -25 61 -25 98v9c0 27 3 54 21 73c22 23 58 23 90 23s67 0 90 -23c24 -24 25 -60 25 -97v-9c0 -27 -3 -55 -21 -74c-20 -21 -52 -22 -82 -22zM489 641h-16c-30 0 -62 1 -83 22c-23 23 -24 56 -24 91v16c0 27 3 54 21 73c22 23 58 23 90 23s67 0 90 -23
c24 -24 25 -60 25 -97v-9c0 -27 -3 -55 -21 -74c-20 -21 -52 -22 -82 -22z" />
    <glyph glyph-name="slash" unicode="/" horiz-adv-x="570" 
d="M31 -46l319 1012h170l-318 -1012h-171z" />
    <glyph glyph-name="asciitilde" unicode="~" horiz-adv-x="745" 
d="M230 284c-13 0 -14 -26 -14 -44v-7c0 -8 1 -16 1 -24h-160c0 8 -1 15 -1 23c0 41 4 82 33 109c34 33 89 33 139 33c94 0 181 -60 275 -60c12 0 13 20 13 38v37h160c0 -8 1 -15 1 -23c0 -41 -4 -82 -33 -109c-34 -33 -89 -33 -139 -33c-94 0 -181 60 -275 60z" />
    <glyph glyph-name="section" unicode="&#xa7;" 
d="M567 121c66 -50 66 -140 66 -231c0 -62 -6 -124 -50 -165c-52 -50 -136 -50 -212 -50h-14c-76 0 -161 0 -215 50c-16 14 -27 31 -35 49l146 62c3 -15 8 -28 16 -39c18 -27 53 -32 86 -32h14c33 0 67 5 84 32c16 25 19 62 19 98v22c0 49 -1 100 -24 133
c-18 27 -53 32 -86 32h-13c-75 0 -161 0 -215 46c-57 48 -57 128 -57 207c0 64 9 128 58 164c-66 50 -66 140 -66 231c0 62 6 124 50 165c52 50 136 50 212 50h14c76 0 161 0 215 -50c8 -7 13 -14 19 -22l-129 -91c-3 15 -9 29 -17 41c-18 27 -53 32 -86 32h-14
c-33 0 -67 -5 -84 -32c-16 -25 -19 -63 -19 -99v-22c0 -49 1 -99 24 -132c18 -27 53 -32 86 -32h13c75 0 161 0 215 -46c57 -48 57 -128 57 -207c0 -64 -9 -128 -58 -164zM355 448h-14c-32 0 -65 -3 -84 -28c-17 -22 -20 -55 -20 -87v-19c0 -42 1 -86 24 -114
c20 -25 54 -28 86 -28h14c32 0 65 3 84 28c17 22 20 55 20 87v19c0 42 -1 86 -24 114c-20 25 -54 28 -86 28z" />
    <glyph glyph-name="guilsinglright" unicode="&#x203a;" horiz-adv-x="418" 
d="M344 299l-100 -299h-176l100 299l-112 299h176z" />
    <glyph glyph-name="Edieresis" unicode="&#xcb;" horiz-adv-x="707" 
d="M614 998c0 -30 -4 -60 -25 -78h46l2 -90h-387l6 -325h307l2 -90h-307l7 -325h387l2 -90h-548l-18 920h56c-28 22 -29 63 -29 103v8c0 27 3 54 21 73c22 23 58 23 90 23s67 0 90 -23c24 -24 25 -60 25 -97v-9c0 -30 -5 -60 -26 -78h103c-28 22 -29 63 -29 103v8
c0 27 3 54 21 73c22 23 57 23 89 23s68 0 91 -23s24 -56 24 -90v-16z" />
    <glyph glyph-name="eng" unicode="&#x14b;" 
d="M439 -235c41 0 42 47 42 90v27c-3 164 -7 327 -10 491c-1 44 -3 96 -20 128c-13 23 -40 32 -67 32h-14c-38 0 -80 -2 -103 -32c-20 -26 -23 -64 -23 -102v-26l7 -373h-160l-12 598h152c38 23 89 25 137 25h14c70 0 146 0 196 -50s52 -128 53 -200c3 -164 7 -327 10 -491
v-31c0 -50 -5 -101 -38 -135c-40 -41 -104 -41 -163 -41h-5c-59 0 -123 0 -165 41c-12 12 -21 27 -27 42l147 58c4 -28 15 -51 43 -51h6z" />
    <glyph glyph-name="r" unicode="r" horiz-adv-x="426" 
d="M91 0l-12 598h149c29 19 69 25 107 25h12c75 0 156 -3 206 -59c52 -59 54 -152 56 -236h-160c-1 56 -3 123 -23 164c-14 28 -45 41 -77 41h-12c-32 0 -63 -13 -76 -41c-14 -31 -17 -77 -17 -121c0 -15 1 -29 1 -43l6 -328h-160z" />
    <glyph glyph-name="u" unicode="u" 
d="M619 598l12 -598h-145c-33 -22 -78 -25 -121 -25h-14c-76 0 -161 0 -215 50c-54 49 -56 128 -57 200l-7 373h160l7 -373c1 -44 2 -96 24 -128c18 -27 53 -32 86 -32h14c33 0 67 5 84 32c16 25 19 63 19 100v28l-7 373h160z" />
    <glyph glyph-name="Odieresis" unicode="&#xd6;" horiz-adv-x="1064" 
d="M287 929c-19 22 -20 53 -20 85v17c0 27 3 54 21 73c22 23 58 23 90 23s67 0 90 -23c24 -24 25 -60 25 -97v-9c0 -18 -2 -37 -8 -53h66c-9 21 -10 46 -10 72v14c0 27 3 54 21 73c22 23 57 23 89 23s68 0 91 -23s24 -56 24 -90v-16c0 -26 -2 -52 -18 -71
c54 -14 103 -37 142 -79c91 -97 93 -250 96 -388c0 -25 1 -50 1 -75c0 -116 -10 -233 -82 -313c-85 -95 -224 -97 -354 -97h-37c-130 0 -269 2 -358 97c-91 97 -94 250 -97 388c0 25 -1 50 -1 75c0 116 11 233 83 313c39 44 90 68 146 81zM533 855h-36
c-86 0 -179 -10 -227 -79c-44 -63 -51 -157 -51 -248v-68c2 -110 5 -237 64 -316c51 -69 143 -79 229 -79h37c86 0 178 10 226 79c44 63 52 157 52 248c0 23 -1 46 -1 68c-2 110 -4 237 -63 316c-51 69 -144 79 -230 79z" />
    <glyph glyph-name="Zdotaccent" unicode="&#x17b;" horiz-adv-x="775" 
d="M485 998c0 -30 -4 -60 -25 -78h259l2 -102l-503 -728h517l2 -90h-699l-2 102l503 728h-518l-1 90h269c-28 22 -29 63 -29 103v8c0 27 2 54 20 73c22 23 58 23 90 23s68 0 91 -23s24 -56 24 -90v-16z" />
    <glyph glyph-name="Igrave" unicode="&#xcc;" horiz-adv-x="403" 
d="M122 0l-19 920h160l19 -920h-160zM-46 1173h208l125 -184h-154z" />
    <glyph glyph-name="P" unicode="P" horiz-adv-x="775" 
d="M106 0l-18 920h305c91 0 191 0 256 -59c67 -61 69 -157 69 -255v-17c0 -73 -8 -147 -60 -196c-61 -57 -156 -58 -245 -58h-153l7 -335h-161zM250 830l8 -406h145c47 0 97 4 125 41c25 33 29 82 29 129v29c0 62 -2 125 -35 166c-29 37 -81 41 -128 41h-144z" />
    <glyph glyph-name="tcaron" unicode="&#x165;" horiz-adv-x="410" 
d="M33 508l-2 90h82l-7 352h160l7 -352h83l2 -90h-83l10 -508h-160l-10 508h-82zM479 950h166l-142 -299h-123z" />
    <glyph glyph-name="Scedilla" unicode="&#x15e;" horiz-adv-x="790" 
d="M65 142l157 27c4 -26 13 -50 29 -68c31 -35 82 -36 129 -36h20c48 0 101 0 130 33c23 27 27 74 27 118c0 80 -15 153 -83 176l-174 54c-114 39 -219 119 -221 234c0 14 -1 27 -1 41c0 67 7 135 50 175c53 49 152 49 236 49h17c83 0 175 0 234 -53c28 -25 43 -58 51 -94
l-154 -41c-4 24 -11 46 -24 63c-24 31 -66 35 -105 35h-17c-40 0 -83 -1 -106 -32c-18 -25 -22 -69 -22 -111c0 -11 1 -22 1 -32c1 -63 32 -124 90 -144l174 -54c112 -38 212 -121 214 -235c0 -14 1 -27 1 -41c0 -69 -7 -139 -55 -181c-53 -46 -150 -50 -236 -50l-11 -29
c52 0 108 -3 145 -27c36 -24 43 -71 43 -117c0 -40 -6 -80 -38 -102c-40 -27 -106 -27 -163 -27h-10c-57 0 -123 0 -164 27c-14 9 -24 23 -30 38l117 49c2 -11 6 -22 15 -29c15 -13 40 -13 61 -13h9c21 0 46 0 61 13c12 11 14 28 14 45c0 22 0 45 -16 58
c-15 13 -40 13 -61 13h-129l39 102c-69 3 -137 13 -185 53c-35 29 -51 69 -59 113z" />
    <glyph glyph-name="b" unicode="b" horiz-adv-x="783" 
d="M99 0l-19 950h160l7 -358c39 25 92 31 142 31h18c88 0 182 -1 243 -65c62 -65 64 -167 66 -259c0 -16 1 -33 1 -50c0 -78 -7 -156 -56 -209c-58 -64 -153 -65 -241 -65h-18c-50 0 -103 6 -143 31v-6h-160zM409 533h-18c-44 0 -91 -10 -113 -47s-26 -91 -26 -144
c0 -15 1 -29 1 -43c1 -64 3 -140 32 -187c23 -37 71 -47 115 -47h18c44 0 91 10 113 47s25 91 25 144v43c-1 64 -3 140 -32 187c-23 37 -71 47 -115 47z" />
    <glyph glyph-name="Yacute" unicode="&#xdd;" horiz-adv-x="790" 
d="M-11 920h183l252 -447l235 447h105l-296 -566l7 -354h-160l-7 354zM398 1173h208l-171 -184h-154z" />
    <glyph glyph-name="ecircumflex" unicode="&#xea;" horiz-adv-x="752" 
d="M670 75c-8 -16 -19 -32 -33 -45c-61 -55 -159 -55 -247 -55h-19c-90 0 -186 1 -249 65c-63 65 -65 166 -67 259c0 16 -1 33 -1 49c0 78 8 157 58 210c60 64 156 65 246 65h19c90 0 186 -1 249 -65c63 -65 65 -166 67 -259l1 -45h-478c2 -52 9 -106 33 -142
c25 -38 74 -47 120 -47h19c44 0 92 3 119 37c10 13 17 29 21 46zM532 344c-2 52 -9 106 -33 142c-25 38 -74 47 -120 47h-19c-46 0 -95 -9 -119 -47c-22 -36 -27 -90 -27 -142h318zM364 788l-45 -60h-142l89 184h192l96 -184h-142z" />
    <glyph glyph-name="ocircumflex" unicode="&#xf4;" horiz-adv-x="760" 
d="M379 533h-19c-46 0 -95 -9 -119 -47c-23 -37 -27 -92 -27 -145c0 -14 1 -28 1 -42c1 -65 3 -140 34 -187c25 -38 74 -47 120 -47h19c46 0 95 9 119 47c23 37 27 92 27 145c0 14 -1 28 -1 42c-1 65 -3 140 -34 187c-25 38 -74 47 -120 47zM377 623c90 0 186 -1 249 -65
c63 -65 65 -166 67 -259c0 -16 1 -33 1 -49c0 -78 -8 -157 -58 -210c-60 -64 -156 -65 -246 -65h-19c-90 0 -186 1 -249 65c-63 65 -65 166 -67 259c0 16 -1 33 -1 49c0 78 8 157 58 210c60 64 156 65 246 65h19zM364 788l-45 -60h-142l89 184h192l96 -184h-142z" />
    <glyph glyph-name="eogonek" unicode="&#x119;" horiz-adv-x="752" 
d="M670 75c-8 -16 -19 -32 -33 -45c-61 -55 -159 -55 -247 -55h-2l-79 -83c-21 -24 -41 -50 -41 -81c0 -20 1 -41 16 -53c15 -13 40 -13 61 -13h10c21 0 46 0 61 13c12 11 14 28 14 45v7l76 -118c-41 -19 -99 -19 -150 -19h-9c-57 0 -123 0 -164 27c-35 23 -43 68 -43 111
c0 79 101 97 150 153l12 12c-67 3 -133 16 -180 64c-63 65 -65 166 -67 259c0 16 -1 33 -1 49c0 78 8 157 58 210c60 64 156 65 246 65h19c90 0 186 -1 249 -65c63 -65 65 -166 67 -259l1 -45h-478c2 -52 9 -106 33 -142c25 -38 74 -47 120 -47h17l6 7l2 -7
c43 0 87 4 113 37c10 13 17 29 21 46zM532 344c-2 52 -9 106 -33 142c-25 38 -74 47 -120 47h-19c-46 0 -95 -9 -119 -47c-22 -36 -27 -90 -27 -142h318z" />
    <glyph glyph-name="ffi" unicode="&#xfb03;" horiz-adv-x="1056" 
d="M314 885c-34 0 -35 -40 -35 -76v-24l4 -187h196l-3 144c0 11 -1 22 -1 34c0 57 6 113 44 152c46 47 118 47 185 47h9c67 0 140 0 187 -47c22 -22 34 -49 41 -79l-156 -32c-2 15 -6 28 -12 39c-11 21 -34 29 -58 29h-9c-24 0 -48 -8 -58 -29c-11 -22 -12 -53 -12 -85v-29
l3 -144h314l12 -598h-160l-10 508h-154l10 -508h-160l-10 508h-196l10 -508h-160l-10 508h-62l-2 90h62l-4 187v28c0 46 5 92 37 124c38 38 100 38 156 38h4c64 0 133 -4 169 -51l-130 -99c-2 30 -8 60 -37 60h-4z" />
    <glyph glyph-name="plus" unicode="+" horiz-adv-x="745" 
d="M280 598h161l5 -254h231l2 -90h-232l5 -254h-160l-5 254h-231l-2 90h231z" />
    <glyph glyph-name="Eogonek" unicode="&#x118;" horiz-adv-x="707" 
d="M106 0l-18 920h547l2 -90h-387l6 -325h307l2 -90h-307l7 -325h387l2 -90h-4l-102 -108c-21 -24 -41 -50 -41 -81c0 -20 1 -41 16 -53c15 -13 40 -13 61 -13h10c21 0 45 0 60 13c12 11 14 28 14 45v7l76 -118c-41 -19 -98 -19 -149 -19h-10c-57 0 -123 0 -164 27
c-35 23 -43 68 -43 111c0 79 102 97 151 153l34 36h-457z" />
    <glyph glyph-name="R" unicode="R" horiz-adv-x="768" 
d="M106 0l-18 920h305c90 0 191 0 256 -55c68 -58 68 -155 68 -251c0 -71 -8 -144 -60 -190c-29 -26 -66 -40 -107 -47l210 -377h-188l-194 369h-119l8 -369h-161zM250 830l7 -371h145c47 0 97 2 126 37c25 30 29 75 29 119v27c0 57 -2 114 -35 151c-31 35 -81 37 -128 37
h-144z" />
    <glyph glyph-name="ecaron" unicode="&#x11b;" horiz-adv-x="752" 
d="M670 75c-8 -16 -19 -32 -33 -45c-61 -55 -159 -55 -247 -55h-19c-90 0 -186 1 -249 65c-63 65 -65 166 -67 259c0 16 -1 33 -1 49c0 78 8 157 58 210c60 64 156 65 246 65h19c90 0 186 -1 249 -65c63 -65 65 -166 67 -259l1 -45h-478c2 -52 9 -106 33 -142
c25 -38 74 -47 120 -47h19c44 0 92 3 119 37c10 13 17 29 21 46zM408 912h142l-89 -184h-192l-96 184h142l48 -60zM532 344c-2 52 -9 106 -33 142c-25 38 -74 47 -120 47h-19c-46 0 -95 -9 -119 -47c-22 -36 -27 -90 -27 -142h318z" />
    <glyph glyph-name="V" unicode="V" horiz-adv-x="800" 
d="M-6 920h171l266 -689l239 689h99l-318 -920h-102z" />
    <glyph glyph-name="AE" unicode="&#xc6;" horiz-adv-x="1224" 
d="M15 0l460 920h677l2 -90h-437l7 -325h386l2 -90h-387l7 -325h437l1 -90h-596l-6 300h-288l-1 28l-163 -328h-101zM311 390h255l-10 491z" />
    <glyph glyph-name="bracketright" unicode="]" horiz-adv-x="426" 
d="M26 966h243l26 -1266h-243l-2 90h83l-22 1086h-83z" />
    <glyph glyph-name="H" unicode="H" horiz-adv-x="912" 
d="M106 0l-18 920h160l8 -415h379l-8 415h160l19 -920h-161l-8 415h-379l9 -415h-161z" />
    <glyph glyph-name="exclam" unicode="!" horiz-adv-x="495" 
d="M160 355l-11 565h160l11 -565h-160zM235 217h16c29 0 59 -1 79 -21c23 -23 24 -59 24 -95v-9c0 -26 -2 -52 -20 -70c-21 -22 -56 -22 -87 -22s-65 0 -87 22c-23 23 -24 58 -24 94v9c0 26 2 53 20 71c19 20 50 21 79 21z" />
    <glyph glyph-name="Aogonek" unicode="&#x104;" horiz-adv-x="844" 
d="M15 0l337 920h102l346 -850l1 2c8 -25 18 -48 27 -72h-8l-102 -108c-21 -24 -41 -50 -41 -81c0 -20 1 -41 16 -53c15 -13 40 -13 61 -13h10c21 0 45 0 60 13c12 11 15 28 15 45v7l75 -118c-41 -19 -98 -19 -149 -19h-9c-57 0 -123 0 -164 27c-35 23 -43 68 -43 111
c0 79 101 97 150 153l34 36h-78l-88 218h-374l-81 -218h-97zM530 308l-160 394l-145 -394h305z" />
    <glyph glyph-name="L" unicode="L" horiz-adv-x="699" 
d="M106 0l-18 920h160l17 -830h387l2 -90h-548z" />
    <glyph glyph-name="comma" unicode="," horiz-adv-x="357" 
d="M85 120h167l-99 -299h-123z" />
    <glyph glyph-name="ydieresis" unicode="&#xff;" horiz-adv-x="638" 
d="M-4 598h176l179 -384l164 384h104l-383 -898h-103l134 315zM177 641h-16c-30 0 -61 1 -82 22c-24 24 -25 61 -25 98v9c0 27 3 54 21 73c22 23 58 23 90 23s67 0 90 -23c24 -24 25 -60 25 -97v-9c0 -27 -3 -55 -21 -74c-20 -21 -52 -22 -82 -22zM451 641h-16
c-30 0 -62 1 -83 22c-23 23 -24 56 -24 91v16c0 27 3 54 21 73c22 23 58 23 90 23s67 0 90 -23c24 -24 25 -60 25 -97v-9c0 -27 -3 -55 -21 -74c-20 -21 -52 -22 -82 -22z" />
    <glyph glyph-name="O" unicode="O" horiz-adv-x="1064" 
d="M533 855h-36c-86 0 -179 -10 -227 -79c-44 -63 -51 -157 -51 -248v-68c2 -110 5 -237 64 -316c51 -69 143 -79 229 -79h37c86 0 178 10 226 79c44 63 52 157 52 248c0 23 -1 46 -1 68c-2 110 -4 237 -63 316c-51 69 -144 79 -230 79zM531 945c130 0 270 -2 359 -97
c91 -97 93 -250 96 -388c0 -25 1 -50 1 -75c0 -116 -10 -233 -82 -313c-85 -95 -224 -97 -354 -97h-37c-130 0 -269 2 -358 97c-91 97 -94 250 -97 388c0 25 -1 50 -1 75c0 116 11 233 83 313c85 95 224 97 354 97h36z" />
    <glyph glyph-name="bar" unicode="|" horiz-adv-x="304" 
d="M73 -46l-20 1012h160l20 -1012h-160z" />
    <glyph glyph-name="underscore" unicode="_" horiz-adv-x="714" 
d="M49 -165l-2 90h623l2 -90h-623z" />
    <glyph glyph-name="circumflex" unicode="&#x2c6;" horiz-adv-x="319" 
d="M144 796l-46 -60h-142l89 184h192l96 -184h-142z" />
    <glyph glyph-name="Ecircumflex" unicode="&#xca;" horiz-adv-x="707" 
d="M106 0l-18 920h547l2 -90h-387l6 -325h307l2 -90h-307l7 -325h387l2 -90h-548zM364 1049l-45 -60h-142l89 184h192l96 -184h-142z" />
    <glyph glyph-name="asterisk" unicode="*" horiz-adv-x="707" 
d="M255 920h160l3 -148l136 33l3 -173l-86 -21l90 -151h-195l-23 38l-21 -38h-194l84 151l-88 21l-3 173l137 -33z" />
    <glyph glyph-name="dcaron" unicode="&#x10f;" horiz-adv-x="783" 
d="M684 0h-160v6c-39 -25 -92 -31 -142 -31h-18c-88 0 -182 1 -243 65c-62 65 -64 167 -66 259c0 16 -1 33 -1 50c0 78 7 156 56 209c58 64 153 65 241 65h18c50 0 103 -6 143 -31l-7 358h160zM806 950h166l-142 -299h-123zM371 533h-18c-44 0 -91 -10 -113 -47
s-26 -91 -26 -144c0 -15 1 -29 1 -43c1 -64 3 -140 32 -187c23 -37 71 -47 115 -47h18c44 0 91 10 113 47s25 91 25 144v44c-1 64 -3 139 -32 186c-23 37 -71 47 -115 47z" />
    <glyph glyph-name="Ecaron" unicode="&#x11a;" horiz-adv-x="707" 
d="M106 0l-18 920h547l2 -90h-387l6 -325h307l2 -90h-307l7 -325h387l2 -90h-548zM408 1173h142l-89 -184h-192l-96 184h142l48 -60z" />
    <glyph glyph-name="Udieresis" unicode="&#xdc;" horiz-adv-x="903" 
d="M686 998c0 -30 -5 -60 -26 -78h123l12 -624c0 -15 1 -30 1 -45c0 -79 -8 -159 -63 -212c-66 -64 -173 -64 -270 -64h-22c-97 0 -203 0 -272 64c-68 64 -71 164 -73 257l-13 624h133c-28 22 -29 63 -29 103v8c0 27 3 54 21 73c22 23 57 23 89 23s68 0 91 -23
s24 -56 24 -90v-16c0 -27 -3 -55 -21 -74c-20 -21 -51 -22 -81 -22h-8c-19 0 -40 5 -58 5l12 -611c1 -65 2 -139 39 -185c33 -42 91 -46 144 -46h23c53 0 110 4 141 46c28 37 32 93 32 147v38l-12 608c-9 -2 -19 -2 -29 -2h-27c-30 0 -61 1 -82 22c-24 24 -25 61 -25 98v9
c0 27 3 54 21 73c22 23 58 23 90 23s67 0 90 -23c24 -24 25 -60 25 -97v-9z" />
    <glyph glyph-name="Zcaron" unicode="&#x17d;" horiz-adv-x="775" 
d="M21 830l-1 90h699l2 -102l-503 -728h517l2 -90h-699l-2 102l503 728h-518zM416 1173h142l-89 -184h-192l-96 184h142l47 -60z" />
    <glyph glyph-name="acute" unicode="&#xb4;" horiz-adv-x="304" 
d="M102 920h208l-172 -184h-154z" />
    <glyph glyph-name="uni1E9E" unicode="&#x1e9e;" horiz-adv-x="1474" 
d="M65 142l157 28c5 -26 13 -50 31 -69c34 -36 88 -36 137 -36h22c50 0 107 0 138 33c25 27 28 74 28 119v30c-1 63 -29 126 -88 145l-184 54c-116 38 -225 117 -227 234c0 13 -1 27 -1 41c0 67 7 135 52 175c54 49 157 49 244 49h18c85 0 181 0 242 -53
c29 -25 44 -58 53 -94l-156 -34c-4 21 -11 41 -24 56c-26 32 -71 35 -113 35h-18c-42 0 -89 0 -114 -32c-20 -26 -24 -70 -24 -112c0 -11 1 -21 1 -31c1 -63 36 -125 95 -144l184 -54c115 -38 218 -119 220 -235c0 -13 1 -27 1 -41c0 -21 -1 -42 -3 -63l148 27
c5 -26 14 -50 32 -69c34 -36 88 -36 137 -36h21c50 0 108 0 139 33c25 27 28 74 28 119v30c-1 63 -29 126 -88 145l-184 54c-116 38 -225 117 -227 234c0 13 -1 27 -1 41c0 67 7 135 52 175c54 49 157 49 244 49h18c85 0 181 0 242 -53c29 -25 44 -58 53 -94l-156 -34
c-4 21 -11 41 -24 56c-26 32 -71 35 -113 35h-18c-42 0 -89 0 -114 -32c-20 -26 -24 -70 -24 -112c0 -11 1 -21 1 -31c1 -63 35 -125 94 -144l184 -54c115 -38 219 -119 221 -235c0 -13 1 -27 1 -41c0 -69 -7 -139 -57 -181c-60 -50 -174 -50 -269 -50h-22
c-93 0 -198 0 -265 54c-30 24 -46 56 -56 92c-7 -38 -22 -72 -51 -96c-60 -50 -174 -50 -269 -50h-21c-93 0 -199 0 -266 54c-35 28 -52 69 -61 113z" />
    <glyph glyph-name="Uhungarumlaut" unicode="&#x170;" horiz-adv-x="903" 
d="M783 920l12 -624c0 -15 1 -30 1 -45c0 -79 -8 -159 -63 -212c-66 -64 -173 -64 -270 -64h-22c-97 0 -203 0 -272 64c-68 64 -71 164 -73 257l-13 624h161l12 -624c1 -65 2 -139 39 -185c33 -42 91 -46 144 -46h23c53 0 110 4 141 46c28 37 32 93 32 147v38l-13 624h161z
M225 989l107 184h202l-159 -184h-150zM560 1173h202l-159 -184h-150z" />
    <glyph glyph-name="Atilde" unicode="&#xc3;" horiz-adv-x="844" 
d="M15 0l337 920h102l374 -920h-173l-88 218h-374l-81 -218h-97zM338 1042c-19 0 -21 -18 -21 -38v-10h-128c0 5 -1 9 -1 14c0 34 4 68 29 89c27 24 70 25 110 25h9c48 0 90 -35 138 -35c19 0 21 19 21 39c0 4 -1 7 -1 10h129v-14c0 -34 -3 -68 -28 -89
c-29 -26 -78 -26 -120 -26c-48 0 -89 35 -137 35zM530 308l-160 394l-145 -394h305z" />
    <glyph glyph-name="Dcaron" unicode="&#x10e;" horiz-adv-x="958" 
d="M106 0l-18 920h337c127 0 263 -1 352 -92c89 -92 92 -236 95 -368c0 -23 1 -47 1 -70c0 -111 -10 -222 -81 -298c-85 -91 -221 -92 -348 -92h-338zM438 1173h143l-89 -184h-192l-97 184h143l47 -60zM265 90h177c83 0 173 8 221 74c43 59 50 148 50 234c0 21 -1 42 -1 62
c-2 103 -4 222 -61 296c-51 66 -141 74 -224 74h-177z" />
    <glyph glyph-name="equal" unicode="=" horiz-adv-x="745" 
d="M53 374l-1 90h623l2 -90h-624zM58 134l-2 90h624l1 -90h-623z" />
    <glyph glyph-name="C" unicode="C" horiz-adv-x="1026" 
d="M968 193c-12 -45 -32 -87 -63 -121c-85 -95 -224 -97 -354 -97h-37c-130 0 -269 2 -358 97c-91 97 -94 250 -97 388c0 25 -1 50 -1 75c0 116 11 233 83 313c85 95 224 97 354 97h36c130 0 270 -2 359 -97c32 -34 53 -76 67 -121l-152 -45c-9 35 -22 67 -42 94
c-51 69 -144 79 -230 79h-36c-86 0 -179 -10 -227 -79c-44 -63 -51 -157 -51 -248v-68c2 -110 5 -237 64 -316c51 -69 143 -79 229 -79h37c86 0 178 10 226 79c19 27 31 59 39 94z" />
    <glyph glyph-name="Eth" unicode="&#xd0;" horiz-adv-x="1018" 
d="M486 920c127 0 263 -1 352 -92c89 -92 92 -236 95 -368c0 -23 1 -47 1 -70c0 -111 -10 -222 -81 -298c-85 -91 -222 -92 -349 -92h-337l-8 415h-114l-2 90h114l-8 415h337zM326 90h177c83 0 172 8 220 74c43 59 51 148 51 234c0 21 -1 42 -1 62c-2 103 -4 222 -61 296
c-51 66 -141 74 -224 74h-177l6 -325h228l1 -90h-227z" />
    <glyph glyph-name="edieresis" unicode="&#xeb;" horiz-adv-x="752" 
d="M670 75c-8 -16 -19 -32 -33 -45c-61 -55 -159 -55 -247 -55h-19c-90 0 -186 1 -249 65c-63 65 -65 166 -67 259c0 16 -1 33 -1 49c0 78 8 157 58 210c60 64 156 65 246 65h19c90 0 186 -1 249 -65c63 -65 65 -166 67 -259l1 -45h-478c2 -52 9 -106 33 -142
c25 -38 74 -47 120 -47h19c44 0 92 3 119 37c10 13 17 29 21 46zM238 641h-16c-30 0 -61 1 -82 22c-24 24 -25 61 -25 98v9c0 27 3 54 21 73c22 23 58 23 90 23s67 0 90 -23c24 -24 25 -60 25 -97v-9c0 -27 -3 -55 -21 -74c-20 -21 -52 -22 -82 -22zM512 641h-16
c-30 0 -62 1 -83 22c-23 23 -24 56 -24 91v16c0 27 3 54 21 73c22 23 57 23 89 23s68 0 91 -23s24 -56 24 -90v-16c0 -27 -3 -55 -21 -74c-20 -21 -51 -22 -81 -22zM532 344c-2 52 -9 106 -33 142c-25 38 -74 47 -120 47h-19c-46 0 -95 -9 -119 -47
c-22 -36 -27 -90 -27 -142h318z" />
    <glyph glyph-name="ccaron" unicode="&#x10d;" 
d="M685 141c-8 -38 -23 -73 -49 -101c-60 -64 -156 -65 -246 -65h-19c-90 0 -186 1 -249 65c-63 65 -65 166 -67 259c0 16 -1 33 -1 49c0 78 8 157 58 210c60 64 156 65 246 65h19c90 0 186 -1 249 -65c27 -28 44 -63 53 -101l-155 -35c-5 24 -13 46 -25 64
c-25 38 -74 47 -120 47h-19c-46 0 -95 -9 -119 -47c-23 -37 -27 -92 -27 -145c0 -14 1 -28 1 -42c1 -65 3 -140 34 -187c25 -38 74 -47 120 -47h19c46 0 95 9 119 47c11 18 17 40 21 64zM408 912h142l-89 -184h-192l-96 184h142l48 -60z" />
    <glyph glyph-name="cacute" unicode="&#x107;" 
d="M685 141c-8 -38 -23 -73 -49 -101c-60 -64 -156 -65 -246 -65h-19c-90 0 -186 1 -249 65c-63 65 -65 166 -67 259c0 16 -1 33 -1 49c0 78 8 157 58 210c60 64 156 65 246 65h19c90 0 186 -1 249 -65c27 -28 44 -63 53 -101l-155 -35c-5 24 -13 46 -25 64
c-25 38 -74 47 -120 47h-19c-46 0 -95 -9 -119 -47c-23 -37 -27 -92 -27 -145c0 -14 1 -28 1 -42c1 -65 3 -140 34 -187c25 -38 74 -47 120 -47h19c46 0 95 9 119 47c11 18 17 40 21 64zM383 912h208l-172 -184h-153z" />
    <glyph glyph-name="odieresis" unicode="&#xf6;" horiz-adv-x="760" 
d="M238 641h-16c-30 0 -61 1 -82 22c-24 24 -25 61 -25 98v9c0 27 3 54 21 73c22 23 58 23 90 23s67 0 90 -23c24 -24 25 -60 25 -97v-9c0 -27 -3 -55 -21 -74c-20 -21 -52 -22 -82 -22zM512 641h-16c-30 0 -62 1 -83 22c-23 23 -24 56 -24 91v16c0 27 3 54 21 73
c22 23 57 23 89 23s68 0 91 -23s24 -56 24 -90v-16c0 -27 -3 -55 -21 -74c-20 -21 -51 -22 -81 -22zM379 533h-19c-46 0 -95 -9 -119 -47c-23 -37 -27 -92 -27 -145c0 -14 1 -28 1 -42c1 -65 3 -140 34 -187c25 -38 74 -47 120 -47h19c46 0 95 9 119 47c23 37 27 92 27 145
c0 14 -1 28 -1 42c-1 65 -3 140 -34 187c-25 38 -74 47 -120 47zM377 623c90 0 186 -1 249 -65c63 -65 65 -166 67 -259c0 -16 1 -33 1 -49c0 -78 -8 -157 -58 -210c-60 -64 -156 -65 -246 -65h-19c-90 0 -186 1 -249 65c-63 65 -65 166 -67 259c0 16 -1 33 -1 49
c0 78 8 157 58 210c60 64 156 65 246 65h19z" />
    <glyph glyph-name="four" unicode="4" horiz-adv-x="752" 
d="M596 231l5 -231h-161l-4 231h-360l-2 102l406 587h102l12 -599h71l2 -90h-71zM434 321l-5 270l-187 -270h192z" />
    <glyph glyph-name="adieresis" unicode="&#xe4;" horiz-adv-x="714" 
d="M68 517c8 21 19 40 36 56c54 50 140 50 218 50h15c78 0 164 0 220 -50c55 -49 58 -128 59 -201l7 -372h-137c-38 -25 -88 -25 -136 -25h-15c-76 0 -164 0 -220 40c-52 37 -58 105 -58 172c0 56 8 114 52 146c51 38 134 39 207 39h26c39 0 79 0 114 -13v13
c-1 45 -3 97 -26 129c-20 28 -57 32 -91 32h-15c-34 0 -71 -4 -90 -32c-8 -12 -13 -26 -16 -42zM200 641h-16c-30 0 -61 1 -82 22c-24 24 -25 61 -25 98v9c0 27 3 54 21 73c22 23 58 23 90 23s67 0 90 -23c24 -24 25 -60 25 -97v-9c0 -27 -3 -55 -21 -74
c-20 -21 -52 -22 -82 -22zM474 641h-16c-30 0 -62 1 -83 22c-23 23 -24 56 -24 91v16c0 27 3 54 21 73c22 23 57 23 89 23s68 0 91 -23s24 -56 24 -90v-16c0 -27 -3 -55 -21 -74c-20 -21 -51 -22 -81 -22zM352 282h-31c-30 0 -62 -1 -82 -21c-19 -18 -22 -45 -22 -72v-8
c0 -36 1 -71 25 -94c23 -22 58 -22 91 -22h15c33 0 69 0 91 22c19 18 21 44 21 71v8c0 36 -1 72 -25 95c-21 20 -53 21 -83 21z" />
    <glyph glyph-name="Ydieresis" unicode="&#x178;" horiz-adv-x="790" 
d="M160 920c-30 24 -30 68 -30 111c0 27 3 54 21 73c22 23 58 23 90 23s67 0 90 -23c24 -24 25 -60 25 -97v-9c0 -27 -3 -55 -21 -74c-20 -21 -52 -22 -82 -22h-8c-23 0 -47 8 -67 8l246 -437l235 447h105l-296 -566l7 -354h-160l-7 354l-319 566h171zM527 902h-16
c-30 0 -62 1 -83 22c-23 23 -24 56 -24 91v16c0 27 3 54 21 73c22 23 58 23 90 23s67 0 90 -23c24 -24 25 -60 25 -97v-9c0 -27 -3 -55 -21 -74c-20 -21 -52 -22 -82 -22z" />
    <glyph glyph-name="Thorn" unicode="&#xde;" horiz-adv-x="790" 
d="M106 0l-18 920h160l3 -139h144c90 0 191 0 256 -55c68 -58 69 -155 69 -251c0 -71 -8 -143 -60 -189c-63 -55 -164 -55 -254 -55h-144l5 -231h-161zM253 691l7 -370h145c47 0 97 2 126 37c25 30 29 75 29 119v27c0 57 -2 113 -35 150c-31 35 -81 37 -128 37h-144z" />
    <glyph glyph-name="cedilla" unicode="&#xb8;" horiz-adv-x="304" 
d="M92 36h119l-34 -90c52 0 108 -3 145 -27c36 -24 43 -71 43 -117c0 -40 -7 -80 -39 -102c-40 -27 -106 -27 -163 -27h-9c-80 0 -170 3 -195 65l118 49c2 -11 5 -22 14 -29c15 -13 40 -13 61 -13h10c21 0 46 0 61 13c12 11 14 28 14 45c0 22 -1 45 -17 58
c-15 13 -40 13 -61 13h-128z" />
    <glyph glyph-name="p" unicode="p" horiz-adv-x="775" 
d="M97 -300l-18 898h160l1 -6c39 25 91 31 141 31h18c88 0 183 -1 244 -65c62 -65 63 -167 65 -259c0 -16 1 -33 1 -50c0 -78 -7 -156 -56 -209c-58 -64 -153 -65 -241 -65h-18c-50 0 -103 6 -143 31l6 -306h-160zM401 533h-18c-44 0 -91 -10 -113 -47s-25 -91 -25 -144v-44
c1 -64 4 -139 33 -186c23 -37 70 -47 114 -47h19c44 0 91 10 113 47s25 91 25 144c0 15 -1 29 -1 43c-1 64 -3 140 -32 187c-23 37 -71 47 -115 47z" />
    <glyph glyph-name="semicolon" unicode=";" horiz-adv-x="365" 
d="M77 120h167l-99 -299h-123zM163 381h-16c-29 0 -59 1 -79 21c-23 23 -24 59 -24 95v9c0 26 3 52 21 70c21 22 55 22 86 22s65 0 87 -22c23 -23 24 -58 24 -94v-9c0 -26 -2 -53 -20 -71c-19 -20 -50 -21 -79 -21z" />
    <glyph glyph-name="Idieresis" unicode="&#xcf;" horiz-adv-x="403" 
d="M240 920c-30 24 -30 68 -30 111c0 27 3 54 21 73c22 23 58 23 90 23s68 0 91 -23s24 -56 24 -90v-16c0 -27 -3 -55 -21 -74c-20 -21 -51 -22 -81 -22h-8c-21 0 -43 6 -62 6l18 -908h-160l-18 905c-16 -3 -35 -3 -52 -3h-8c-30 0 -62 1 -83 22c-23 23 -24 56 -24 91v16
c0 27 3 54 21 73c22 23 57 23 89 23s68 0 91 -23c24 -24 25 -60 25 -97v-9c0 -30 -5 -60 -26 -78h103z" />
    <glyph glyph-name="U" unicode="U" horiz-adv-x="903" 
d="M783 920l12 -624c0 -15 1 -30 1 -45c0 -79 -8 -159 -63 -212c-66 -64 -173 -64 -270 -64h-22c-97 0 -203 0 -272 64c-68 64 -71 164 -73 257l-13 624h161l12 -624c1 -65 2 -139 39 -185c33 -42 91 -46 144 -46h23c53 0 110 4 141 46c28 37 32 93 32 147v38l-13 624h161z
" />
    <glyph glyph-name="Agrave" unicode="&#xc0;" horiz-adv-x="844" 
d="M15 0l337 920h102l374 -920h-173l-88 218h-374l-81 -218h-97zM174 1173h208l125 -184h-154zM530 308l-160 394l-145 -394h305z" />
    <glyph glyph-name="dollar" unicode="$" horiz-adv-x="790" 
d="M65 142l157 27c4 -26 13 -50 29 -68c31 -35 82 -36 129 -36h20c48 0 101 0 130 33c23 27 27 74 27 118c0 80 -15 153 -83 176l-174 54c-114 39 -219 119 -221 234c0 14 -1 27 -1 41c0 67 7 135 50 175c38 35 100 45 164 48l-3 160h160l4 -160c60 -3 120 -14 162 -52
c28 -25 43 -58 51 -94l-156 -33c-4 21 -10 40 -22 55c-24 31 -66 35 -105 35h-17c-40 0 -83 -1 -106 -32c-18 -25 -22 -69 -22 -111c0 -11 1 -22 1 -32c1 -63 32 -124 90 -144l174 -54c112 -38 212 -121 214 -235c0 -14 1 -27 1 -41c0 -69 -7 -139 -55 -181
c-44 -38 -118 -47 -191 -49l3 -160h-160l-3 160c-70 3 -139 12 -188 53c-35 29 -51 69 -59 113z" />
    <glyph glyph-name="ncaron" unicode="&#x148;" 
d="M91 0l-12 598h152c38 23 89 25 137 25h14c70 0 146 0 196 -50s52 -128 53 -200l7 -373h-160l-7 373c-1 44 -3 96 -20 128c-13 23 -40 32 -67 32h-14c-38 0 -80 -2 -103 -32c-20 -26 -23 -64 -23 -102v-26l7 -373h-160zM393 912h142l-89 -184h-192l-96 184h142l48 -60z
" />
    <glyph glyph-name="Ograve" unicode="&#xd2;" horiz-adv-x="1064" 
d="M284 1173h208l125 -184h-154zM533 855h-36c-86 0 -179 -10 -227 -79c-44 -63 -51 -157 -51 -248v-68c2 -110 5 -237 64 -316c51 -69 143 -79 229 -79h37c86 0 178 10 226 79c44 63 52 157 52 248c0 23 -1 46 -1 68c-2 110 -4 237 -63 316c-51 69 -144 79 -230 79z
M531 945c130 0 270 -2 359 -97c91 -97 93 -250 96 -388c0 -25 1 -50 1 -75c0 -116 -10 -233 -82 -313c-85 -95 -224 -97 -354 -97h-37c-130 0 -269 2 -358 97c-91 97 -94 250 -97 388c0 25 -1 50 -1 75c0 116 11 233 83 313c85 95 224 97 354 97h36z" />
    <glyph glyph-name="Icircumflex" unicode="&#xce;" horiz-adv-x="403" 
d="M122 0l-19 920h160l19 -920h-160zM186 1049l-45 -60h-143l89 184h192l97 -184h-143z" />
    <glyph glyph-name="e" unicode="e" horiz-adv-x="752" 
d="M670 75c-8 -16 -19 -32 -33 -45c-61 -55 -159 -55 -247 -55h-19c-90 0 -186 1 -249 65c-63 65 -65 166 -67 259c0 16 -1 33 -1 49c0 78 8 157 58 210c60 64 156 65 246 65h19c90 0 186 -1 249 -65c63 -65 65 -166 67 -259l1 -45h-478c2 -52 9 -106 33 -142
c25 -38 74 -47 120 -47h19c44 0 92 3 119 37c10 13 17 29 21 46zM532 344c-2 52 -9 106 -33 142c-25 38 -74 47 -120 47h-19c-46 0 -95 -9 -119 -47c-22 -36 -27 -90 -27 -142h318z" />
    <glyph glyph-name="breve" unicode="&#x2d8;" horiz-adv-x="319" 
d="M360 901v-12c0 -44 -6 -89 -40 -115c-42 -32 -111 -32 -170 -32h-11c-59 0 -128 0 -171 32c-38 28 -44 79 -45 127h128c0 -23 2 -47 19 -63s44 -16 68 -16h11c24 0 50 0 67 16c14 13 16 32 16 52v11h128z" />
    <glyph glyph-name="ampersand" unicode="&#x26;" horiz-adv-x="942" 
d="M181 466c-73 53 -74 153 -74 253c0 64 7 129 51 173c53 53 137 53 215 53h14c78 0 162 0 217 -53c23 -22 37 -51 45 -81l-154 -38c-4 18 -9 34 -18 47c-18 28 -54 35 -88 35h-14c-34 0 -71 -7 -88 -35c-17 -27 -19 -68 -19 -108v-22c0 -56 2 -113 28 -150
c22 -30 62 -35 100 -35h466l2 -90h-196l8 -415h-284c-77 0 -162 0 -217 50c-57 53 -59 136 -59 220v17c0 71 11 140 65 179zM507 415h-124c-34 0 -69 -6 -87 -33c-17 -26 -20 -64 -20 -101v-22c0 -50 1 -103 25 -137c19 -27 55 -32 89 -32h124z" />
    <glyph glyph-name="d" unicode="d" horiz-adv-x="783" 
d="M684 0h-160v6c-39 -25 -92 -31 -142 -31h-18c-88 0 -182 1 -243 65c-62 65 -64 167 -66 259c0 16 -1 33 -1 50c0 78 7 156 56 209c58 64 153 65 241 65h18c50 0 103 -6 143 -31l-7 358h160zM371 533h-18c-44 0 -91 -10 -113 -47s-26 -91 -26 -144c0 -15 1 -29 1 -43
c1 -64 3 -140 32 -187c23 -37 71 -47 115 -47h18c44 0 91 10 113 47s25 91 25 144v44c-1 64 -3 139 -32 186c-23 37 -71 47 -115 47z" />
    <glyph glyph-name="dotlessi" unicode="&#x131;" horiz-adv-x="289" 
d="M64 0l-12 598h161l11 -598h-160z" />
    <glyph glyph-name="Oslash" unicode="&#xd8;" horiz-adv-x="1064" 
d="M533 855h-36c-86 0 -179 -10 -227 -79c-44 -63 -51 -157 -51 -248v-68c1 -73 3 -152 21 -221l486 573c-53 37 -125 43 -193 43zM531 945c94 0 194 -1 276 -38l11 13h190l-91 -107c64 -96 67 -230 69 -353c0 -25 1 -50 1 -75c0 -116 -10 -233 -82 -313
c-85 -95 -224 -97 -354 -97h-37c-94 0 -193 1 -275 38l-12 -13h-189l91 107c-64 96 -68 230 -70 353c0 25 -1 50 -1 75c0 116 11 233 83 313c85 95 224 97 354 97h36zM319 108c53 -37 125 -43 193 -43h37c86 0 178 10 226 79c44 63 52 157 52 248c0 23 -1 46 -1 68
c-1 73 -3 152 -21 221z" />
    <glyph glyph-name="Acircumflex" unicode="&#xc2;" horiz-adv-x="844" 
d="M15 0l337 920h102l374 -920h-173l-88 218h-374l-81 -218h-97zM530 308l-160 394l-145 -394h305zM406 1049l-45 -60h-142l88 184h192l97 -184h-142z" />
    <glyph glyph-name="w" unicode="w" horiz-adv-x="980" 
d="M-4 598h178l200 -409l59 133l-135 276h179l42 -86l38 86h101l-87 -194l106 -215l183 409h101l-268 -598h-102l-105 214l-96 -214h-102z" />
    <glyph glyph-name="braceright" unicode="}" horiz-adv-x="464" 
d="M184 -298l-68 114c31 42 40 97 40 152v9l-4 182v41c0 50 4 101 25 141c-29 51 -31 120 -32 182l-4 182c-1 58 -12 117 -46 161l64 114c12 -7 23 -14 34 -23c77 -58 107 -156 109 -252l3 -182c1 -29 2 -62 18 -82c15 -18 40 -20 64 -20l3 -160c-24 0 -49 -2 -63 -20
c-13 -16 -15 -41 -15 -65c0 -6 1 -12 1 -17l3 -182v-10c0 -93 -26 -186 -98 -242c-11 -9 -22 -16 -34 -23z" />
    <glyph glyph-name="nacute" unicode="&#x144;" 
d="M91 0l-12 598h152c38 23 89 25 137 25h14c70 0 146 0 196 -50s52 -128 53 -200l7 -373h-160l-7 373c-1 44 -3 96 -20 128c-13 23 -40 32 -67 32h-14c-38 0 -80 -2 -103 -32c-20 -26 -23 -64 -23 -102v-26l7 -373h-160zM368 912h208l-172 -184h-154z" />
    <glyph glyph-name="lslash" unicode="&#x142;" horiz-adv-x="350" 
d="M84 547l-8 403h160l5 -274l37 31l4 -179l-37 -30l10 -498h-160l-8 369l-36 -31l-4 179z" />
    <glyph glyph-name="Ccaron" unicode="&#x10c;" horiz-adv-x="1026" 
d="M968 193c-12 -45 -32 -87 -63 -121c-85 -95 -224 -97 -354 -97h-37c-130 0 -269 2 -358 97c-91 97 -94 250 -97 388c0 25 -1 50 -1 75c0 116 11 233 83 313c85 95 224 97 354 97h36c130 0 270 -2 359 -97c32 -34 53 -76 67 -121l-152 -45c-9 35 -22 67 -42 94
c-51 69 -144 79 -230 79h-36c-86 0 -179 -10 -227 -79c-44 -63 -51 -157 -51 -248v-68c2 -110 5 -237 64 -316c51 -69 143 -79 229 -79h37c86 0 178 10 226 79c19 27 31 59 39 94zM560 1173h142l-89 -184h-192l-96 184h142l48 -60z" />
    <glyph glyph-name="Uacute" unicode="&#xda;" horiz-adv-x="903" 
d="M783 920l12 -624c0 -15 1 -30 1 -45c0 -79 -8 -159 -63 -212c-66 -64 -173 -64 -270 -64h-22c-97 0 -203 0 -272 64c-68 64 -71 164 -73 257l-13 624h161l12 -624c1 -65 2 -139 39 -185c33 -42 91 -46 144 -46h23c53 0 110 4 141 46c28 37 32 93 32 147v38l-13 624h161z
M455 1173h207l-171 -184h-154z" />
    <glyph glyph-name="v" unicode="v" horiz-adv-x="638" 
d="M-4 598h176l180 -395l164 395h103l-249 -598h-102z" />
    <glyph glyph-name="E" unicode="E" horiz-adv-x="707" 
d="M106 0l-18 920h547l2 -90h-387l6 -325h307l2 -90h-307l7 -325h387l2 -90h-548z" />
    <glyph glyph-name="B" unicode="B" horiz-adv-x="798" 
d="M106 0l-18 920h321c74 0 155 0 207 -48c53 -50 55 -127 55 -205v-17c0 -57 -5 -114 -44 -153c12 -6 23 -13 33 -22c65 -56 65 -149 65 -241c0 -68 -8 -137 -57 -181c-59 -53 -155 -53 -241 -53h-321zM250 830l6 -302h161c30 0 62 5 77 30c15 24 17 60 17 94v23
c0 46 -1 94 -22 125c-16 25 -49 30 -79 30h-160zM258 438l7 -348h160c42 0 87 3 113 35c23 28 26 70 26 111v28c0 52 -2 104 -31 139c-27 32 -73 35 -115 35h-160z" />
    <glyph glyph-name="s" unicode="s" horiz-adv-x="608" 
d="M47 106l158 22c2 -16 7 -32 18 -43c19 -19 47 -20 74 -20h12c27 0 58 0 75 18c14 15 15 40 15 64c0 40 -3 83 -38 93l-107 32c-92 25 -184 76 -186 166v28c0 47 4 95 38 123c40 34 118 34 182 34h8c63 0 134 0 179 -37c26 -21 37 -51 42 -84l-158 -23c-2 13 -5 26 -11 35
c-11 16 -32 19 -51 19h-8c-19 0 -40 -1 -50 -17c-9 -14 -11 -37 -11 -59c0 -45 10 -84 49 -95l107 -32c89 -24 173 -80 175 -167v-24c0 -50 -5 -100 -43 -129c-46 -35 -134 -35 -206 -35h-11c-71 0 -152 0 -203 38c-30 22 -43 56 -49 93z" />
    <glyph glyph-name="OE" unicode="&#x152;" horiz-adv-x="1277" 
d="M487 855h-31c-76 0 -156 -16 -194 -79c-37 -62 -44 -154 -44 -243c0 -25 1 -49 1 -73c2 -109 6 -237 56 -316c41 -63 121 -79 197 -79h31c76 0 156 16 194 79c37 62 43 154 43 243c0 25 -1 49 -1 73c-2 109 -5 237 -55 316c-41 63 -121 79 -197 79zM485 945
c84 0 173 -3 245 -37v12h475l2 -90h-315l6 -325h235l2 -90h-235l7 -325h315l2 -90h-476v12c-71 -34 -159 -37 -243 -37h-32c-119 0 -247 6 -325 97c-83 97 -86 251 -89 388c-1 26 -1 52 -1 78c0 114 10 231 74 310c74 91 203 97 322 97h31z" />
    <glyph glyph-name="caron" unicode="&#x2c7;" horiz-adv-x="319" 
d="M188 920h142l-89 -184h-192l-96 184h142l47 -60z" />
    <glyph glyph-name="eth" unicode="&#xf0;" horiz-adv-x="798" 
d="M567 768c104 -153 150 -316 150 -517c0 -78 -8 -157 -60 -211c-63 -65 -163 -65 -255 -65h-20c-92 0 -193 0 -258 65s-67 166 -69 259c0 16 -1 32 -1 48c0 78 8 157 60 211c63 65 163 65 255 65h20c31 0 62 -1 92 -7c-18 37 -38 73 -61 107l-186 -57l-2 93l130 40
c-51 58 -111 109 -178 151h218c39 -32 75 -68 107 -106l189 58l2 -94zM556 258c0 71 -5 131 -19 194c-5 13 -10 24 -17 34c-28 40 -80 47 -129 47h-20c-49 0 -102 -7 -128 -47c-25 -37 -29 -92 -29 -146c0 -14 1 -28 1 -41c1 -65 3 -140 36 -187c28 -40 80 -47 129 -47h20
c49 0 102 7 128 47c25 37 28 92 28 146z" />
    <glyph glyph-name="Rcaron" unicode="&#x158;" horiz-adv-x="768" 
d="M106 0l-18 920h305c90 0 191 0 256 -55c68 -58 68 -155 68 -251c0 -71 -8 -144 -60 -190c-29 -26 -66 -40 -107 -47l210 -377h-188l-194 369h-119l8 -369h-161zM378 1173h142l-89 -184h-192l-96 184h142l47 -60zM250 830l7 -371h145c47 0 97 2 126 37c25 30 29 75 29 119
v27c0 57 -2 114 -35 151c-31 35 -81 37 -128 37h-144z" />
    <glyph glyph-name="zacute" unicode="&#x17a;" horiz-adv-x="562" 
d="M28 508l-2 90h486l2 -102l-290 -406h299l1 -90h-486l-2 102l290 406h-298zM284 912h208l-171 -184h-154z" />
    <glyph glyph-name="uring" unicode="&#x16f;" 
d="M619 598l12 -598h-145c-33 -22 -78 -25 -121 -25h-14c-76 0 -161 0 -215 50c-54 49 -56 128 -57 200l-7 373h160l7 -373c1 -44 2 -96 24 -128c18 -27 53 -32 86 -32h14c33 0 67 5 84 32c16 25 19 63 19 100v28l-7 373h160zM342 882h-6c-14 0 -28 -1 -36 -12
c-7 -10 -9 -26 -9 -40c0 -22 0 -45 11 -60c8 -11 23 -12 37 -12h6c14 0 29 1 37 12c7 10 8 25 8 39v10c0 19 -1 38 -10 51c-8 11 -24 12 -38 12zM341 942c43 0 92 0 123 -24s33 -67 33 -109c0 -33 -4 -67 -29 -87c-30 -24 -79 -24 -122 -24h-6c-43 0 -92 0 -123 24
s-32 67 -32 109c0 33 3 67 28 87c30 24 79 24 122 24h6z" />
    <glyph glyph-name="I" unicode="I" horiz-adv-x="403" 
d="M122 0l-19 920h160l19 -920h-160z" />
    <glyph glyph-name="ntilde" unicode="&#xf1;" 
d="M91 0l-12 598h152c38 23 89 25 137 25h14c70 0 146 0 196 -50s52 -128 53 -200l7 -373h-160l-7 373c-1 44 -3 96 -20 128c-13 23 -40 32 -67 32h-14c-38 0 -80 -2 -103 -32c-20 -26 -23 -64 -23 -102v-26l7 -373h-160zM281 781c-19 0 -21 -18 -21 -38v-10h-128
c0 5 -1 9 -1 14c0 34 4 68 29 89c27 24 70 25 110 25h9c48 0 90 -35 138 -35c19 0 21 19 21 39c0 4 -1 7 -1 10h129v-14c0 -34 -3 -68 -28 -89c-29 -26 -78 -26 -120 -26c-48 0 -89 35 -137 35z" />
    <glyph glyph-name="Uring" unicode="&#x16e;" horiz-adv-x="903" 
d="M783 920l12 -624c0 -15 1 -30 1 -45c0 -79 -8 -159 -63 -212c-66 -64 -173 -64 -270 -64h-22c-97 0 -203 0 -272 64c-68 64 -71 164 -73 257l-13 624h161l12 -624c1 -65 2 -139 39 -185c33 -42 91 -46 144 -46h23c53 0 110 4 141 46c28 37 32 93 32 147v38l-13 624h161z
M437 1143h-6c-14 0 -29 -1 -37 -12c-7 -10 -8 -26 -8 -40v-10c0 -19 1 -37 10 -50c8 -11 23 -12 37 -12h6c14 0 29 1 37 12c7 10 8 26 8 40v10c0 19 -1 37 -10 50c-8 11 -23 12 -37 12zM435 1203c43 0 92 0 123 -24s33 -67 33 -109c0 -33 -4 -67 -29 -87
c-30 -24 -79 -24 -122 -24h-6c-43 0 -92 0 -123 24s-32 67 -32 109c0 33 4 67 29 87c30 24 78 24 121 24h6z" />
    <glyph glyph-name="tcedilla" unicode="&#x163;" horiz-adv-x="410" 
d="M33 508l-2 90h82l-7 352h160l7 -352h83l2 -90h-83l10 -508h-35l-20 -54c52 0 108 -3 145 -27c36 -24 43 -71 43 -117c0 -40 -7 -80 -39 -102c-40 -27 -105 -27 -162 -27h-10c-57 0 -123 0 -164 27c-14 9 -24 23 -30 38l117 49c2 -11 5 -22 14 -29c15 -13 40 -13 61 -13
h10c21 0 46 0 61 13c12 11 14 28 14 45c0 22 0 45 -16 58c-15 13 -40 13 -61 13h-129l48 126h-7l-10 508h-82z" />
    <glyph glyph-name="ucircumflex" unicode="&#xfb;" 
d="M619 598l12 -598h-145c-33 -22 -78 -25 -121 -25h-14c-76 0 -161 0 -215 50c-54 49 -56 128 -57 200l-7 373h160l7 -373c1 -44 2 -96 24 -128c18 -27 53 -32 86 -32h14c33 0 67 5 84 32c16 25 19 63 19 100v28l-7 373h160zM341 788l-45 -60h-142l89 184h192l96 -184h-142
z" />
    <glyph glyph-name="Egrave" unicode="&#xc8;" horiz-adv-x="707" 
d="M106 0l-18 920h547l2 -90h-387l6 -325h307l2 -90h-307l7 -325h387l2 -90h-548zM132 1173h208l125 -184h-154z" />
    <glyph glyph-name="j" unicode="j" horiz-adv-x="319" 
d="M37 -235c34 0 34 50 34 87c0 11 -1 20 -1 30l-14 716h160l14 -716c0 -10 1 -20 1 -31c0 -50 -4 -101 -36 -135c-38 -41 -99 -41 -156 -41h-4c-57 0 -118 0 -157 41c-11 12 -20 27 -26 42l147 55c3 -23 10 -48 34 -48h4zM169 641h-16c-30 0 -61 1 -82 22
c-24 24 -25 61 -25 98v9c0 27 3 54 21 73c22 23 58 23 90 23s67 0 90 -23c24 -24 25 -60 25 -97v-9c0 -27 -3 -55 -21 -74c-20 -21 -52 -22 -82 -22z" />
    <glyph glyph-name="Oacute" unicode="&#xd3;" horiz-adv-x="1064" 
d="M535 1173h208l-172 -184h-153zM533 855h-36c-86 0 -179 -10 -227 -79c-44 -63 -51 -157 -51 -248v-68c2 -110 5 -237 64 -316c51 -69 143 -79 229 -79h37c86 0 178 10 226 79c44 63 52 157 52 248c0 23 -1 46 -1 68c-2 110 -4 237 -63 316c-51 69 -144 79 -230 79z
M531 945c130 0 270 -2 359 -97c91 -97 93 -250 96 -388c0 -25 1 -50 1 -75c0 -116 -10 -233 -82 -313c-85 -95 -224 -97 -354 -97h-37c-130 0 -269 2 -358 97c-91 97 -94 250 -97 388c0 25 -1 50 -1 75c0 116 11 233 83 313c85 95 224 97 354 97h36z" />
    <glyph glyph-name="ae" unicode="&#xe6;" horiz-adv-x="1125" 
d="M543 585c56 37 131 38 203 38h18c86 0 178 -2 237 -65c60 -65 63 -167 65 -259l1 -45h-448c2 -52 7 -106 29 -142s67 -47 110 -47h17c41 0 84 4 107 37c9 12 14 28 18 44l144 -71c-8 -16 -18 -32 -32 -45c-58 -55 -151 -55 -235 -55h-18c-69 0 -141 1 -198 34
c-54 -34 -135 -34 -207 -34h-15c-75 0 -162 0 -217 40c-52 37 -57 106 -57 173c0 56 8 113 51 145c50 38 132 39 204 39h41c33 0 66 -1 95 -12v12c-1 45 -2 97 -25 129c-19 27 -55 32 -89 32h-14c-34 0 -69 -5 -87 -32c-8 -12 -13 -26 -16 -41l-150 57c8 21 19 40 36 56
c53 50 138 50 215 50h15zM325 282h30c30 0 61 -1 81 -21c23 -22 24 -53 24 -87v-16c0 -26 -2 -53 -20 -71c-22 -22 -56 -22 -88 -22h-14c-32 0 -67 0 -89 22c-23 22 -24 53 -24 87v16c0 26 2 53 20 71c20 20 50 21 80 21zM904 344h-287c0 52 4 106 24 142s64 47 107 47h17
c43 0 88 -11 110 -47s27 -90 29 -142z" />
    <glyph glyph-name="c" unicode="c" 
d="M685 141c-8 -38 -23 -73 -49 -101c-60 -64 -156 -65 -246 -65h-19c-90 0 -186 1 -249 65c-63 65 -65 166 -67 259c0 16 -1 33 -1 49c0 78 8 157 58 210c60 64 156 65 246 65h19c90 0 186 -1 249 -65c27 -28 44 -63 53 -101l-155 -35c-5 24 -13 46 -25 64
c-25 38 -74 47 -120 47h-19c-46 0 -95 -9 -119 -47c-23 -37 -27 -92 -27 -145c0 -14 1 -28 1 -42c1 -65 3 -140 34 -187c25 -38 74 -47 120 -47h19c46 0 95 9 119 47c11 18 17 40 21 64z" />
    <glyph glyph-name="Lcaron" unicode="&#x13d;" horiz-adv-x="699" 
d="M106 0l-18 920h160l17 -830h387l2 -90h-548zM410 920h167l-142 -299h-123z" />
    <glyph glyph-name="D" unicode="D" horiz-adv-x="958" 
d="M106 0l-18 920h337c127 0 263 -1 352 -92c89 -92 92 -236 95 -368c0 -23 1 -47 1 -70c0 -111 -10 -222 -81 -298c-85 -91 -221 -92 -348 -92h-338zM265 90h177c83 0 173 8 221 74c43 59 50 148 50 234c0 21 -1 42 -1 62c-2 103 -4 222 -61 296c-51 66 -141 74 -224 74
h-177z" />
    <glyph glyph-name="icircumflex" unicode="&#xee;" horiz-adv-x="289" 
d="M64 0l-12 598h161l11 -598h-160zM128 788l-45 -60h-142l89 184h192l96 -184h-142z" />
    <glyph glyph-name="gbreve" unicode="&#x11f;" horiz-adv-x="775" 
d="M672 598l13 -638v-40c0 -70 -7 -141 -56 -188c-59 -57 -155 -57 -241 -57h-18c-86 0 -181 0 -243 57c-25 23 -40 50 -49 81l153 44c5 -20 11 -38 22 -53c26 -34 72 -39 115 -39h18c43 0 89 5 113 39c22 31 26 78 26 123v33l-2 69c-39 -25 -92 -29 -142 -29h-18
c-87 0 -181 0 -243 62s-63 161 -65 250c0 15 -1 30 -1 46c0 75 7 151 56 203c59 62 154 62 241 62h18c50 0 103 -4 143 -29v4h160zM573 893v-12c0 -44 -6 -89 -40 -115c-42 -32 -111 -32 -170 -32h-11c-59 0 -128 0 -171 32c-38 28 -44 79 -45 127h128c0 -23 1 -47 18 -63
s45 -16 69 -16h10c24 0 51 0 68 16c14 13 16 32 16 52v11h128zM371 533h-18c-44 0 -90 -8 -113 -44c-22 -35 -26 -88 -26 -138v-24c0 -71 2 -145 33 -193c24 -36 71 -44 115 -44h18c44 0 90 8 113 44c22 35 25 88 25 138v34c0 67 -2 138 -32 183c-24 36 -71 44 -115 44z" />
    <glyph glyph-name="ij" unicode="&#x133;" horiz-adv-x="699" 
d="M125 598h160l12 -598h-160zM596 598l14 -716c0 -8 1 -17 1 -25c0 -53 -6 -106 -44 -141c-46 -41 -119 -41 -185 -41h-10c-66 0 -140 0 -187 41c-13 12 -23 27 -30 42l145 64c2 -13 6 -25 12 -34c12 -19 35 -23 58 -23h10c23 0 46 4 57 23c11 18 13 46 13 73v21l-14 716
h160zM533 867h16c30 0 62 -1 83 -22c23 -23 24 -56 24 -91v-16c0 -27 -3 -55 -21 -74c-20 -21 -51 -22 -81 -22h-16c-30 0 -62 1 -83 22c-23 23 -24 56 -24 91v16c0 27 3 55 21 74c20 21 51 22 81 22zM161 867h16c30 0 61 -1 82 -22c24 -24 25 -61 25 -98v-9
c0 -27 -3 -55 -21 -74c-20 -21 -52 -22 -82 -22h-16c-30 0 -61 1 -82 22c-24 24 -25 61 -25 98v9c0 27 3 55 21 74c20 21 52 22 82 22z" />
    <glyph glyph-name="n" unicode="n" 
d="M91 0l-12 598h152c38 23 89 25 137 25h14c70 0 146 0 196 -50s52 -128 53 -200l7 -373h-160l-7 373c-1 44 -3 96 -20 128c-13 23 -40 32 -67 32h-14c-38 0 -80 -2 -103 -32c-20 -26 -23 -64 -23 -102v-26l7 -373h-160z" />
    <glyph glyph-name="percent" unicode="%" horiz-adv-x="1246" 
d="M283 -46l482 1012h180l-482 -1012h-180zM333 830h-7c-20 0 -40 -10 -48 -28c-9 -21 -10 -51 -10 -81v-30c0 -41 1 -83 14 -112c8 -18 29 -28 49 -28h8c20 0 39 10 47 28c9 21 11 51 11 81v17c0 45 -1 93 -15 125c-8 18 -29 28 -49 28zM331 920c64 0 133 0 178 -46
s48 -114 48 -185v-33c0 -55 -5 -111 -41 -149c-43 -46 -111 -46 -175 -46h-8c-64 0 -132 0 -177 46c-47 48 -49 120 -49 193v25c0 55 5 111 41 149c43 46 112 46 176 46h7zM897 369h-8c-20 0 -39 -10 -47 -28c-9 -21 -11 -51 -11 -81v-17c0 -45 1 -93 15 -125
c8 -18 29 -28 49 -28h7c20 0 40 10 48 28c9 21 10 51 10 81v30c0 41 -1 83 -14 112c-8 18 -29 28 -49 28zM895 459c64 0 132 0 177 -46c47 -48 49 -120 49 -193v-25c0 -55 -5 -111 -41 -149c-43 -46 -112 -46 -176 -46h-7c-64 0 -133 0 -178 46s-48 114 -48 185v33
c0 55 5 111 41 149c43 46 111 46 175 46h8z" />
    <glyph glyph-name="q" unicode="q" horiz-adv-x="775" 
d="M690 -300h-160l-6 306c-39 -25 -92 -31 -142 -31h-18c-88 0 -182 1 -243 65c-62 65 -64 167 -66 259c0 16 -1 33 -1 50c0 78 7 156 56 209c58 64 153 65 241 65h18c50 0 103 -6 143 -31v6h160zM371 533h-18c-44 0 -91 -10 -113 -47s-26 -91 -26 -144c0 -15 1 -29 1 -43
c1 -64 3 -140 32 -187c23 -37 71 -47 115 -47h18c44 0 91 10 113 47s25 91 25 144v44c-1 64 -3 139 -32 186c-23 37 -71 47 -115 47z" />
    <glyph glyph-name="Racute" unicode="&#x154;" horiz-adv-x="768" 
d="M106 0l-18 920h305c90 0 191 0 256 -55c68 -58 68 -155 68 -251c0 -71 -8 -144 -60 -190c-29 -26 -66 -40 -107 -47l210 -377h-188l-194 369h-119l8 -369h-161zM353 1173h207l-171 -184h-154zM250 830l7 -371h145c47 0 97 2 126 37c25 30 29 75 29 119v27
c0 57 -2 114 -35 151c-31 35 -81 37 -128 37h-144z" />
    <glyph glyph-name="x" unicode="x" horiz-adv-x="616" 
d="M26 598h197l105 -167l122 167h116l-184 -253l218 -345h-197l-126 200l-146 -200h-116l208 286z" />
    <glyph glyph-name="S" unicode="S" horiz-adv-x="790" 
d="M65 142l157 27c4 -26 13 -50 29 -68c31 -35 82 -36 129 -36h20c48 0 101 0 130 33c23 27 27 74 27 118c0 80 -15 153 -83 176l-174 54c-114 39 -219 119 -221 234c0 14 -1 27 -1 41c0 67 7 135 50 175c53 49 152 49 236 49h17c83 0 175 0 234 -53c28 -25 43 -58 51 -94
l-154 -41c-4 24 -11 46 -24 63c-24 31 -66 35 -105 35h-17c-40 0 -83 -1 -106 -32c-18 -25 -22 -69 -22 -111c0 -11 1 -22 1 -32c1 -63 32 -124 90 -144l174 -54c112 -38 212 -121 214 -235c0 -14 1 -27 1 -41c0 -69 -7 -139 -55 -181c-58 -50 -169 -50 -261 -50h-20
c-91 0 -193 0 -258 54c-35 29 -51 69 -59 113z" />
    <glyph glyph-name="A" unicode="A" horiz-adv-x="844" 
d="M15 0l337 920h102l374 -920h-173l-88 218h-374l-81 -218h-97zM530 308l-160 394l-145 -394h305z" />
    <glyph glyph-name="Y" unicode="Y" horiz-adv-x="790" 
d="M-11 920h183l252 -447l235 447h105l-296 -566l7 -354h-160l-7 354z" />
    <glyph glyph-name="oslash" unicode="&#xf8;" horiz-adv-x="760" 
d="M379 533h-19c-46 0 -95 -9 -119 -47c-23 -37 -27 -92 -27 -145c0 -39 1 -75 4 -113l239 292c-24 10 -51 13 -78 13zM377 623c65 0 134 0 191 -25h150l-64 -77c36 -63 37 -146 39 -222c0 -16 1 -33 1 -49c0 -78 -8 -157 -58 -210c-60 -64 -156 -65 -246 -65h-19
c-65 0 -134 0 -191 25h-150l64 77c-36 63 -37 146 -39 222c0 16 -1 33 -1 49c0 78 8 157 58 210c60 64 156 65 246 65h19zM291 78c24 -10 51 -13 78 -13h19c46 0 95 9 119 47c23 37 27 92 27 145c0 39 -1 75 -4 113z" />
    <glyph glyph-name="dieresis" unicode="&#xa8;" horiz-adv-x="319" 
d="M18 649h-16c-30 0 -62 1 -83 22c-23 23 -24 56 -24 91v16c0 27 3 54 21 73c22 23 57 23 89 23s68 0 91 -23s24 -56 24 -90v-16c0 -27 -3 -55 -21 -74c-20 -21 -51 -22 -81 -22zM291 649h-16c-30 0 -61 1 -82 22c-24 24 -25 61 -25 98v9c0 27 3 54 21 73
c22 23 58 23 90 23s67 0 90 -23c24 -24 25 -60 25 -97v-9c0 -27 -3 -55 -21 -74c-20 -21 -52 -22 -82 -22z" />
    <glyph glyph-name="o" unicode="o" horiz-adv-x="760" 
d="M379 533h-19c-46 0 -95 -9 -119 -47c-23 -37 -27 -92 -27 -145c0 -14 1 -28 1 -42c1 -65 3 -140 34 -187c25 -38 74 -47 120 -47h19c46 0 95 9 119 47c23 37 27 92 27 145c0 14 -1 28 -1 42c-1 65 -3 140 -34 187c-25 38 -74 47 -120 47zM377 623c90 0 186 -1 249 -65
c63 -65 65 -166 67 -259c0 -16 1 -33 1 -49c0 -78 -8 -157 -58 -210c-60 -64 -156 -65 -246 -65h-19c-90 0 -186 1 -249 65c-63 65 -65 166 -67 259c0 16 -1 33 -1 49c0 78 8 157 58 210c60 64 156 65 246 65h19z" />
    <glyph glyph-name="sacute" unicode="&#x15b;" horiz-adv-x="608" 
d="M47 106l158 22c2 -16 7 -32 18 -43c19 -19 47 -20 74 -20h12c27 0 58 0 75 18c14 15 15 40 15 64c0 40 -3 83 -38 93l-107 32c-92 25 -184 76 -186 166v28c0 47 4 95 38 123c40 34 118 34 182 34h8c63 0 134 0 179 -37c26 -21 37 -51 42 -84l-158 -23c-2 13 -5 26 -11 35
c-11 16 -32 19 -51 19h-8c-19 0 -40 -1 -50 -17c-9 -14 -11 -37 -11 -59c0 -45 10 -84 49 -95l107 -32c89 -24 173 -80 175 -167v-24c0 -50 -5 -100 -43 -129c-46 -35 -134 -35 -206 -35h-11c-71 0 -152 0 -203 38c-30 22 -43 56 -49 93zM307 912h208l-172 -184h-153z" />
    <glyph glyph-name="J" unicode="J" horiz-adv-x="669" 
d="M552 920l13 -667v-41c0 -68 -7 -135 -53 -181c-56 -56 -144 -56 -226 -56h-16c-81 0 -169 0 -227 54l107 116c4 -16 10 -30 18 -42c21 -31 62 -38 100 -38h16c38 0 79 7 99 38c19 30 22 74 22 117v33l-14 667h161z" />
    <glyph glyph-name="dotaccent" unicode="&#x2d9;" horiz-adv-x="274" 
d="M132 649h-16c-30 0 -62 1 -83 22c-23 23 -24 56 -24 91v16c0 27 3 54 21 73c22 23 57 23 89 23s68 0 91 -23s24 -56 24 -90v-16c0 -27 -3 -55 -21 -74c-20 -21 -51 -22 -81 -22z" />
    <glyph glyph-name="y" unicode="y" horiz-adv-x="638" 
d="M-4 598h176l179 -384l164 384h104l-383 -898h-103l134 315z" />
    <glyph glyph-name="yacute" unicode="&#xfd;" horiz-adv-x="638" 
d="M-4 598h176l179 -384l164 384h104l-383 -898h-103l134 315zM322 912h208l-171 -184h-154z" />
    <glyph glyph-name="dotlessj" unicode="&#x237;" horiz-adv-x="319" 
d="M37 -235c34 0 34 50 34 87c0 11 -1 20 -1 30l-14 716h160l14 -716c0 -10 1 -20 1 -31c0 -50 -4 -101 -36 -135c-38 -41 -99 -41 -156 -41h-4c-57 0 -118 0 -157 41c-11 12 -20 27 -26 42l147 55c3 -23 10 -48 34 -48h4z" />
    <glyph glyph-name="braceleft" unicode="{" horiz-adv-x="464" 
d="M232 955l89 -112c-20 -38 -27 -84 -27 -129v-9l4 -182v-41c0 -50 -4 -101 -25 -141c29 -51 31 -120 32 -182l4 -182c1 -48 9 -97 32 -138l-85 -112c-76 58 -106 154 -108 250l-3 182c-1 29 -2 62 -18 82c-15 18 -40 20 -64 20l-3 160c24 0 49 2 63 20c13 16 15 41 15 65
c0 6 -1 12 -1 17l-3 182v9c0 92 27 185 98 241z" />
    <glyph glyph-name="numbersign" unicode="#" horiz-adv-x="821" 
d="M25 277l-2 90h140l31 186h-144l-2 90h161l46 277h160l-46 -277h125l46 277h160l-46 -277h124l1 -90h-140l-31 -186h145l1 -90h-160l-46 -277h-161l46 277h-124l-46 -277h-161l46 277h-123zM448 367l31 186h-125l-31 -186h125z" />
    <glyph glyph-name="quoteleft" unicode="&#x2018;" horiz-adv-x="388" 
d="M174 920h123l-99 -299h-166z" />
    <glyph glyph-name="ffl" unicode="&#xfb04;" horiz-adv-x="1056" 
d="M655 885c-28 0 -31 -27 -31 -56c0 -5 1 -11 1 -16l4 -215h98l2 -90h-98l10 -508h-160l-10 508h-186l10 -508h-160l-10 508h-62l-2 90h62l-4 215v17c0 42 4 86 35 113c38 32 99 32 153 32h39l-1 -144c-1 28 -4 54 -32 54h-4c-28 0 -30 -27 -30 -56v-16l4 -215h186l-4 215
c0 6 -1 11 -1 17c0 42 5 86 36 113c38 32 99 32 153 32h39l-1 -144c-1 28 -4 54 -32 54h-4zM805 0l-19 950h160l19 -950h-160z" />
    <glyph glyph-name="perthousandzero" horiz-adv-x="524" 
d="M201 230c0 -60 -2 -140 56 -140h7c49 0 50 55 50 107v32c0 60 2 140 -56 140h-7c-49 0 -50 -55 -50 -107v-32zM256 459c62 0 129 -1 172 -46c45 -47 47 -120 47 -193v-26c0 -55 -6 -110 -40 -148c-41 -45 -107 -46 -169 -46h-7c-62 0 -129 1 -172 46
c-43 46 -46 115 -46 185v34c0 55 5 110 39 148c41 45 108 46 170 46h6z" />
    <glyph glyph-name="lcaron" unicode="&#x13e;" horiz-adv-x="343" 
d="M91 0l-19 950h160l19 -950h-160zM373 950h167l-142 -299h-124z" />
    <glyph glyph-name="three" unicode="3" 
d="M550 464c76 -54 76 -157 76 -260c0 -66 -6 -132 -53 -176c-56 -53 -145 -53 -226 -53h-16c-81 0 -171 0 -229 53c-24 22 -38 50 -47 81l153 40c4 -19 11 -35 21 -49c22 -30 62 -35 100 -35h16c38 0 78 5 99 35c19 28 22 70 22 110v22c0 55 -2 112 -28 148
c-22 30 -62 35 -100 35h-73l-1 90h72c38 0 78 5 99 35c19 28 22 70 22 110v22c0 55 -2 112 -28 148c-22 30 -62 35 -100 35h-16c-38 0 -78 -5 -99 -35c-10 -14 -15 -30 -18 -49l-156 40c7 31 22 59 45 81c56 53 145 53 226 53h16c81 0 171 0 229 -53c61 -56 62 -146 62 -235
v-8c0 -73 -12 -146 -68 -185z" />
    <glyph glyph-name="Ucircumflex" unicode="&#xdb;" horiz-adv-x="903" 
d="M783 920l12 -624c0 -15 1 -30 1 -45c0 -79 -8 -159 -63 -212c-66 -64 -173 -64 -270 -64h-22c-97 0 -203 0 -272 64c-68 64 -71 164 -73 257l-13 624h161l12 -624c1 -65 2 -139 39 -185c33 -42 91 -46 144 -46h23c53 0 110 4 141 46c28 37 32 93 32 147v38l-13 624h161z
M436 1049l-46 -60h-142l89 184h192l96 -184h-142z" />
    <glyph glyph-name="ohungarumlaut" unicode="&#x151;" horiz-adv-x="760" 
d="M154 728l107 184h201l-159 -184h-149zM489 912h201l-159 -184h-149zM379 533h-19c-46 0 -95 -9 -119 -47c-23 -37 -27 -92 -27 -145c0 -14 1 -28 1 -42c1 -65 3 -140 34 -187c25 -38 74 -47 120 -47h19c46 0 95 9 119 47c23 37 27 92 27 145c0 14 -1 28 -1 42
c-1 65 -3 140 -34 187c-25 38 -74 47 -120 47zM377 623c90 0 186 -1 249 -65c63 -65 65 -166 67 -259c0 -16 1 -33 1 -49c0 -78 -8 -157 -58 -210c-60 -64 -156 -65 -246 -65h-19c-90 0 -186 1 -249 65c-63 65 -65 166 -67 259c0 16 -1 33 -1 49c0 78 8 157 58 210
c60 64 156 65 246 65h19z" />
    <glyph glyph-name="bracketleft" unicode="[" horiz-adv-x="426" 
d="M143 -300l-26 1266h244l1 -90h-83l22 -1086h83l2 -90h-243z" />
    <glyph glyph-name="oacute" unicode="&#xf3;" horiz-adv-x="760" 
d="M383 912h208l-172 -184h-153zM379 533h-19c-46 0 -95 -9 -119 -47c-23 -37 -27 -92 -27 -145c0 -14 1 -28 1 -42c1 -65 3 -140 34 -187c25 -38 74 -47 120 -47h19c46 0 95 9 119 47c23 37 27 92 27 145c0 14 -1 28 -1 42c-1 65 -3 140 -34 187c-25 38 -74 47 -120 47z
M377 623c90 0 186 -1 249 -65c63 -65 65 -166 67 -259c0 -16 1 -33 1 -49c0 -78 -8 -157 -58 -210c-60 -64 -156 -65 -246 -65h-19c-90 0 -186 1 -249 65c-63 65 -65 166 -67 259c0 16 -1 33 -1 49c0 78 8 157 58 210c60 64 156 65 246 65h19z" />
    <glyph glyph-name="nine" unicode="9" horiz-adv-x="745" 
d="M66 123l152 43c5 -21 12 -39 22 -55c24 -37 70 -46 114 -46h19c44 0 91 9 113 46c22 36 25 90 25 142c0 14 -1 29 -1 43l-1 78c-39 -24 -92 -28 -142 -28h-18c-87 0 -181 0 -243 60s-64 154 -66 240v44c0 73 7 145 56 195c59 60 154 60 241 60h18c87 0 181 0 243 -60
s63 -153 65 -239l7 -350c0 -16 1 -33 1 -49c0 -77 -7 -155 -56 -208c-59 -63 -153 -64 -241 -64h-18c-88 0 -182 1 -243 64c-23 24 -37 53 -47 84zM357 855h-18c-43 0 -90 -7 -113 -42c-22 -33 -26 -83 -26 -131v-32c0 -64 2 -129 32 -172c25 -35 72 -42 115 -42h18
c43 0 90 7 113 42c22 33 26 83 26 131v23c0 67 -2 136 -33 181c-25 35 -71 42 -114 42z" />
    <glyph glyph-name="backslash" unicode="\" horiz-adv-x="570" 
d="M366 -46l-355 1012h175l355 -1012h-175z" />
    <glyph glyph-name="atilde" unicode="&#xe3;" horiz-adv-x="714" 
d="M68 517c8 21 19 40 36 56c54 50 140 50 218 50h15c78 0 164 0 220 -50c55 -49 58 -128 59 -201l7 -372h-137c-38 -25 -88 -25 -136 -25h-15c-76 0 -164 0 -220 40c-52 37 -58 105 -58 172c0 56 8 114 52 146c51 38 134 39 207 39h26c39 0 79 0 114 -13v13
c-1 45 -3 97 -26 129c-20 28 -57 32 -91 32h-15c-34 0 -71 -4 -90 -32c-8 -12 -13 -26 -16 -42zM258 781c-19 0 -21 -18 -21 -38v-10h-128v14c0 34 3 68 28 89c27 24 70 25 110 25h9c48 0 90 -35 138 -35c19 0 21 19 21 39v10h128v-14c0 -34 -3 -68 -28 -89
c-29 -26 -78 -26 -120 -26c-48 0 -89 35 -137 35zM352 282h-31c-30 0 -62 -1 -82 -21c-19 -18 -22 -45 -22 -72v-8c0 -36 1 -71 25 -94c23 -22 58 -22 91 -22h15c33 0 69 0 91 22c19 18 21 44 21 71v8c0 36 -1 72 -25 95c-21 20 -53 21 -83 21z" />
    <glyph glyph-name="Aacute" unicode="&#xc1;" horiz-adv-x="844" 
d="M15 0l337 920h102l374 -920h-173l-88 218h-374l-81 -218h-97zM425 1173h208l-172 -184h-154zM530 308l-160 394l-145 -394h305z" />
    <glyph glyph-name="ccedilla" unicode="&#xe7;" 
d="M685 141c-8 -38 -23 -73 -49 -101c-55 -58 -138 -64 -220 -65l-11 -29c52 0 108 -3 145 -27c36 -24 43 -71 43 -117c0 -40 -7 -80 -39 -102c-40 -27 -106 -27 -163 -27h-9c-80 0 -170 3 -195 65l118 49c2 -11 5 -22 14 -29c15 -13 40 -13 61 -13h10c21 0 46 0 61 13
c12 11 14 28 14 45c0 22 -1 45 -17 58c-15 13 -40 13 -61 13h-128l39 102c-66 4 -130 17 -176 64c-63 65 -65 166 -67 259c0 16 -1 33 -1 49c0 78 8 157 58 210c60 64 156 65 246 65h19c90 0 186 -1 249 -65c27 -28 44 -63 53 -101l-155 -35c-5 24 -13 46 -25 64
c-25 38 -74 47 -120 47h-19c-46 0 -95 -9 -119 -47c-23 -37 -27 -92 -27 -145c0 -14 1 -28 1 -42c1 -65 3 -140 34 -187c25 -38 74 -47 120 -47h19c46 0 95 9 119 47c11 18 17 40 21 64z" />
    <glyph glyph-name="Lslash" unicode="&#x141;" horiz-adv-x="714" 
d="M669 0h-547l-6 295l-90 -55l-4 164l90 55l-9 461h160l8 -364l202 124l3 -164l-202 -124l6 -302h387z" />
    <glyph glyph-name="Sacute" unicode="&#x15a;" horiz-adv-x="790" 
d="M65 142l157 27c4 -26 13 -50 29 -68c31 -35 82 -36 129 -36h20c48 0 101 0 130 33c23 27 27 74 27 118c0 80 -15 153 -83 176l-174 54c-114 39 -219 119 -221 234c0 14 -1 27 -1 41c0 67 7 135 50 175c53 49 152 49 236 49h17c83 0 175 0 234 -53c28 -25 43 -58 51 -94
l-154 -41c-4 24 -11 46 -24 63c-24 31 -66 35 -105 35h-17c-40 0 -83 -1 -106 -32c-18 -25 -22 -69 -22 -111c0 -11 1 -22 1 -32c1 -63 32 -124 90 -144l174 -54c112 -38 212 -121 214 -235c0 -14 1 -27 1 -41c0 -69 -7 -139 -55 -181c-58 -50 -169 -50 -261 -50h-20
c-91 0 -193 0 -258 54c-35 29 -51 69 -59 113zM395 1173h207l-171 -184h-154z" />
    <glyph glyph-name="visiblespace" unicode="&#x2420;" horiz-adv-x="608" 
d="M30 0h161l1 -75h227l-2 75h161l3 -165h-547c-1 26 -1 51 -2 77v13z" />
    <glyph glyph-name="aring" unicode="&#xe5;" horiz-adv-x="714" 
d="M68 517c8 21 19 40 36 56c54 50 140 50 218 50h15c78 0 164 0 220 -50c55 -49 58 -128 59 -201l7 -372h-137c-38 -25 -88 -25 -136 -25h-15c-76 0 -164 0 -220 40c-52 37 -58 105 -58 172c0 56 8 114 52 146c51 38 134 39 207 39h26c39 0 79 0 114 -13v13
c-1 45 -3 97 -26 129c-20 28 -57 32 -91 32h-15c-34 0 -71 -4 -90 -32c-8 -12 -13 -26 -16 -42zM352 282h-31c-30 0 -62 -1 -82 -21c-19 -18 -22 -45 -22 -72v-8c0 -36 1 -71 25 -94c23 -22 58 -22 91 -22h15c33 0 69 0 91 22c19 18 21 44 21 71v8c0 36 -1 72 -25 95
c-21 20 -53 21 -83 21zM327 882h-6c-14 0 -29 -1 -37 -12c-7 -10 -8 -26 -8 -40v-10c0 -19 1 -37 10 -50c8 -11 24 -12 38 -12h6c14 0 28 1 36 12c7 10 9 25 9 39c0 22 0 46 -11 61c-8 11 -23 12 -37 12zM326 942c43 0 92 0 123 -24s33 -67 33 -109c0 -33 -4 -67 -29 -87
c-30 -24 -79 -24 -122 -24h-6c-43 0 -92 0 -123 24s-33 67 -33 109c0 33 4 67 29 87c30 24 79 24 122 24h6z" />
    <glyph glyph-name="m" unicode="m" horiz-adv-x="1102" 
d="M580 567c36 51 105 56 170 56h13c70 0 145 0 195 -50s52 -128 53 -200l7 -373h-160l-7 373c-1 44 -2 96 -19 128c-12 23 -40 32 -67 32h-13c-38 0 -79 -3 -102 -32c-20 -26 -23 -65 -23 -102v-26l8 -373h-160l-8 373c-1 44 -2 96 -19 128c-12 23 -40 32 -67 32h-13
c-38 0 -78 -3 -101 -32c-20 -26 -23 -64 -23 -102v-26l7 -373h-160l-12 598h151c38 23 88 25 136 25h14c74 0 152 -2 200 -56z" />
    <glyph glyph-name="ograve" unicode="&#xf2;" horiz-adv-x="760" 
d="M132 912h208l125 -184h-154zM379 533h-19c-46 0 -95 -9 -119 -47c-23 -37 -27 -92 -27 -145c0 -14 1 -28 1 -42c1 -65 3 -140 34 -187c25 -38 74 -47 120 -47h19c46 0 95 9 119 47c23 37 27 92 27 145c0 14 -1 28 -1 42c-1 65 -3 140 -34 187c-25 38 -74 47 -120 47z
M377 623c90 0 186 -1 249 -65c63 -65 65 -166 67 -259c0 -16 1 -33 1 -49c0 -78 -8 -157 -58 -210c-60 -64 -156 -65 -246 -65h-19c-90 0 -186 1 -249 65c-63 65 -65 166 -67 259c0 16 -1 33 -1 49c0 78 8 157 58 210c60 64 156 65 246 65h19z" />
    <glyph glyph-name="Cacute" unicode="&#x106;" horiz-adv-x="1026" 
d="M968 193c-12 -45 -32 -87 -63 -121c-85 -95 -224 -97 -354 -97h-37c-130 0 -269 2 -358 97c-91 97 -94 250 -97 388c0 25 -1 50 -1 75c0 116 11 233 83 313c85 95 224 97 354 97h36c130 0 270 -2 359 -97c32 -34 53 -76 67 -121l-152 -45c-9 35 -22 67 -42 94
c-51 69 -144 79 -230 79h-36c-86 0 -179 -10 -227 -79c-44 -63 -51 -157 -51 -248v-68c2 -110 5 -237 64 -316c51 -69 143 -79 229 -79h37c86 0 178 10 226 79c19 27 31 59 39 94zM535 1173h208l-172 -184h-153z" />
    <glyph glyph-name="six" unicode="6" horiz-adv-x="745" 
d="M660 797l-152 -43c-5 21 -11 39 -21 55c-24 37 -71 46 -115 46h-18l5 -281l-5 281c-44 0 -91 -9 -113 -46c-22 -36 -25 -90 -25 -142v-43l2 -78c39 24 91 28 141 28h19c87 0 181 0 243 -60s63 -154 65 -240c0 -15 1 -29 1 -44c0 -73 -8 -145 -57 -195
c-59 -60 -153 -60 -240 -60h-19c-87 0 -181 0 -243 60s-63 153 -65 239l-7 350c0 16 -1 33 -1 49c0 77 7 155 56 208c59 63 153 64 241 64h18c88 0 182 -1 243 -64c23 -24 37 -53 47 -84zM370 65h18c43 0 90 7 113 42c22 33 25 83 25 131v32c0 64 -2 129 -32 172
c-25 35 -72 42 -115 42h-18c-43 0 -90 -7 -113 -42c-22 -33 -25 -83 -25 -131v-32c0 -64 2 -129 32 -172c25 -35 72 -42 115 -42z" />
    <glyph glyph-name="egrave" unicode="&#xe8;" horiz-adv-x="752" 
d="M670 75c-8 -16 -19 -32 -33 -45c-61 -55 -159 -55 -247 -55h-19c-90 0 -186 1 -249 65c-63 65 -65 166 -67 259c0 16 -1 33 -1 49c0 78 8 157 58 210c60 64 156 65 246 65h19c90 0 186 -1 249 -65c63 -65 65 -166 67 -259l1 -45h-478c2 -52 9 -106 33 -142
c25 -38 74 -47 120 -47h19c44 0 92 3 119 37c10 13 17 29 21 46zM132 912h208l125 -184h-154zM532 344c-2 52 -9 106 -33 142c-25 38 -74 47 -120 47h-19c-46 0 -95 -9 -119 -47c-22 -36 -27 -90 -27 -142h318z" />
    <glyph glyph-name="cwm" horiz-adv-x="0" 
d="M155 1c0 -23 -17 -45 -44 -45c-23 0 -44 17 -45 43l-18 920c0 23 17 45 44 45c23 0 44 -17 45 -43z" />
    <glyph glyph-name="hyphen" unicode="-" horiz-adv-x="441" 
d="M56 254l-2 90h319l2 -90h-319z" />
    <glyph glyph-name="scaron" unicode="&#x161;" horiz-adv-x="608" 
d="M47 106l158 22c2 -16 7 -32 18 -43c19 -19 47 -20 74 -20h12c27 0 58 0 75 18c14 15 15 40 15 64c0 40 -3 83 -38 93l-107 32c-92 25 -184 76 -186 166v28c0 47 4 95 38 123c40 34 118 34 182 34h8c63 0 134 0 179 -37c26 -21 37 -51 42 -84l-158 -23c-2 13 -5 26 -11 35
c-11 16 -32 19 -51 19h-8c-19 0 -40 -1 -50 -17c-9 -14 -11 -37 -11 -59c0 -45 10 -84 49 -95l107 -32c89 -24 173 -80 175 -167v-24c0 -50 -5 -100 -43 -129c-46 -35 -134 -35 -206 -35h-11c-71 0 -152 0 -203 38c-30 22 -43 56 -49 93zM332 912h142l-89 -184h-192l-96 184
h142l48 -60z" />
    <glyph glyph-name="Zacute" unicode="&#x179;" horiz-adv-x="775" 
d="M21 830l-1 90h699l2 -102l-503 -728h517l2 -90h-699l-2 102l503 728h-518zM391 1173h207l-171 -184h-154z" />
    <glyph glyph-name="igrave" unicode="&#xec;" horiz-adv-x="289" 
d="M64 0l-12 598h161l11 -598h-160zM-103 912h207l125 -184h-153z" />
    <glyph glyph-name="acircumflex" unicode="&#xe2;" horiz-adv-x="714" 
d="M68 517c8 21 19 40 36 56c54 50 140 50 218 50h15c78 0 164 0 220 -50c55 -49 58 -128 59 -201l7 -372h-137c-38 -25 -88 -25 -136 -25h-15c-76 0 -164 0 -220 40c-52 37 -58 105 -58 172c0 56 8 114 52 146c51 38 134 39 207 39h26c39 0 79 0 114 -13v13
c-1 45 -3 97 -26 129c-20 28 -57 32 -91 32h-15c-34 0 -71 -4 -90 -32c-8 -12 -13 -26 -16 -42zM352 282h-31c-30 0 -62 -1 -82 -21c-19 -18 -22 -45 -22 -72v-8c0 -36 1 -71 25 -94c23 -22 58 -22 91 -22h15c33 0 69 0 91 22c19 18 21 44 21 71v8c0 36 -1 72 -25 95
c-21 20 -53 21 -83 21zM326 788l-45 -60h-142l89 184h192l96 -184h-142z" />
    <glyph glyph-name="M" unicode="M" horiz-adv-x="1178" 
d="M106 0l-18 920h102l398 -804l363 804h102l19 -920h-161l-11 574l-260 -574h-102l-283 572l12 -572h-161z" />
    <glyph glyph-name="N" unicode="N" horiz-adv-x="950" 
d="M106 0l-18 920h102l488 -669l-13 669h160l19 -920h-102l-489 669l14 -669h-161z" />
    <glyph glyph-name="at" unicode="@" horiz-adv-x="1018" 
d="M910 55c-76 -80 -246 -80 -382 -80h-36c-130 0 -270 2 -359 97c-91 97 -94 250 -97 388c0 25 -1 50 -1 75c0 116 11 233 83 313c85 95 224 97 354 97h36c130 0 270 -2 359 -97c91 -97 94 -250 97 -388v-34c0 -56 -5 -111 -43 -149c-45 -46 -118 -46 -184 -46h-4l-2 90h5
c23 0 46 8 56 28c10 21 12 52 12 83c0 10 -1 19 -1 28c-2 110 -4 237 -63 316c-51 69 -144 79 -230 79h-36c-86 0 -179 -10 -227 -79c-44 -63 -51 -157 -51 -248c0 -23 1 -46 1 -68c2 -110 4 -237 63 -316c51 -69 144 -79 230 -79h36c79 0 171 0 227 39c21 15 35 36 43 60z
M478 599h-11c-27 0 -55 -5 -69 -28c-13 -22 -16 -54 -16 -86v-23c0 -42 1 -85 20 -113c15 -23 44 -28 71 -28h11c27 0 55 5 69 28c13 22 15 54 15 86v23c0 42 -1 85 -20 113c-15 23 -43 28 -70 28zM476 689c30 0 61 -2 88 -12v12h160l9 -458h-160l-1 12
c-26 -10 -57 -12 -87 -12h-11c-71 0 -149 0 -199 46c-51 46 -53 117 -53 190v23c0 57 6 115 46 153c49 46 126 46 197 46h11z" />
    <glyph glyph-name="idieresis" unicode="&#xef;" horiz-adv-x="289" 
d="M64 0l-12 598h161l11 -598h-160zM3 641h-16c-30 0 -62 1 -83 22c-23 23 -24 56 -24 91v16c0 27 2 54 20 73c22 23 58 23 90 23s68 0 91 -23s24 -56 24 -90v-16c0 -27 -3 -55 -21 -74c-20 -21 -51 -22 -81 -22zM276 641h-16c-30 0 -61 1 -82 22c-24 24 -25 61 -25 98v9
c0 27 3 54 21 73c22 23 58 23 90 23s67 0 90 -23c24 -24 25 -60 25 -97v-9c0 -27 -3 -55 -21 -74c-20 -21 -52 -22 -82 -22z" />
    <glyph glyph-name="colon" unicode=":" horiz-adv-x="403" 
d="M189 217h16c29 0 60 -1 80 -21c22 -22 23 -54 23 -88v-16c0 -26 -2 -52 -20 -70c-21 -22 -55 -22 -86 -22s-66 0 -88 22s-23 54 -23 87v16c0 26 2 53 20 71c19 20 49 21 78 21zM202 381h-16c-29 0 -59 1 -79 21c-23 23 -24 59 -24 95v9c0 26 2 52 20 70
c21 22 56 22 87 22s65 0 87 -22c23 -23 24 -58 24 -94v-9c0 -26 -2 -53 -20 -71c-19 -20 -50 -21 -79 -21z" />
    <glyph glyph-name="l" unicode="l" horiz-adv-x="343" 
d="M91 0l-19 950h160l19 -950h-160z" />
    <glyph glyph-name="Iacute" unicode="&#xcd;" horiz-adv-x="403" 
d="M122 0l-19 920h160l19 -920h-160zM205 1173h208l-172 -184h-154z" />
    <glyph glyph-name="two" unicode="2" 
d="M61 0l-2 90c88 77 175 154 263 231c93 94 150 218 150 351c0 52 -1 111 -28 148c-22 30 -62 35 -100 35h-16c-38 0 -78 -5 -99 -35c-10 -14 -15 -30 -18 -49l-155 41c7 31 20 58 44 80c56 53 146 53 227 53h15c81 0 171 0 229 -53s61 -138 61 -218
c0 -179 -132 -316 -258 -443c-54 -47 -107 -94 -161 -141h431l2 -90h-585z" />
    <glyph glyph-name="zero" unicode="0" horiz-adv-x="790" 
d="M387 855h-18c-51 0 -102 -17 -118 -63c-14 -42 -18 -126 -18 -210c0 -42 1 -85 2 -122c2 -112 5 -269 29 -332c17 -46 70 -63 121 -63h18c51 0 102 17 118 63c14 42 18 126 18 210c0 42 -1 85 -2 122c-2 112 -5 269 -29 332c-17 46 -70 63 -121 63zM385 945
c96 0 206 0 256 -78s54 -267 57 -407c1 -35 1 -74 1 -113c0 -116 -7 -236 -42 -294c-47 -78 -156 -78 -252 -78h-18c-96 0 -206 0 -256 78s-54 267 -57 407c-1 35 -1 74 -1 113c0 116 7 236 42 294c47 78 156 78 252 78h18z" />
    <glyph glyph-name="g" unicode="g" horiz-adv-x="775" 
d="M672 598l13 -638v-40c0 -70 -7 -141 -56 -188c-59 -57 -155 -57 -241 -57h-18c-86 0 -181 0 -243 57c-25 23 -40 50 -49 81l153 44c5 -20 11 -38 22 -53c26 -34 72 -39 115 -39h18c43 0 89 5 113 39c22 31 26 78 26 123v33l-2 69c-39 -25 -92 -29 -142 -29h-18
c-87 0 -181 0 -243 62s-63 161 -65 250c0 15 -1 30 -1 46c0 75 7 151 56 203c59 62 154 62 241 62h18c50 0 103 -4 143 -29v4h160zM371 533h-18c-44 0 -90 -8 -113 -44c-22 -35 -26 -88 -26 -138v-24c0 -71 2 -145 33 -193c24 -36 71 -44 115 -44h18c44 0 90 8 113 44
c22 35 25 88 25 138v34c0 67 -2 138 -32 183c-24 36 -71 44 -115 44z" />
    <glyph glyph-name="Tcedilla" unicode="&#x162;" horiz-adv-x="699" 
d="M18 830l-1 90h629l2 -90h-235l17 -830h-35l-21 -54c52 0 108 -3 145 -27c36 -24 44 -71 44 -117c0 -40 -7 -80 -39 -102c-40 -27 -106 -27 -163 -27h-10c-57 0 -123 0 -164 27c-14 9 -24 23 -30 38l117 49c2 -11 6 -22 15 -29c15 -13 40 -13 61 -13h10c21 0 45 0 60 13
c12 11 14 28 14 45c0 22 0 45 -16 58c-15 13 -40 13 -61 13h-128l47 126h-6l-17 830h-235z" />
    <glyph glyph-name="Tcaron" unicode="&#x164;" horiz-adv-x="699" 
d="M18 830l-1 90h629l2 -90h-235l17 -830h-160l-17 830h-235zM378 1173h142l-89 -184h-192l-96 184h142l47 -60z" />
    <glyph glyph-name="hungarumlaut" unicode="&#x2dd;" horiz-adv-x="319" 
d="M-67 736l107 184h202l-159 -184h-150zM268 920h202l-159 -184h-150z" />
    <glyph glyph-name="Lacute" unicode="&#x139;" horiz-adv-x="699" 
d="M106 0l-18 920h160l17 -830h387l2 -90h-548zM190 1173h207l-171 -184h-154z" />
    <glyph glyph-name="quotesinglbase" unicode="&#x201a;" horiz-adv-x="388" 
d="M168 115h167l-142 -299h-124z" />
    <glyph glyph-name="grave" unicode="`" horiz-adv-x="304" 
d="M-42 920h207l125 -184h-154z" />
    <glyph glyph-name="otilde" unicode="&#xf5;" horiz-adv-x="760" 
d="M296 781c-19 0 -21 -18 -21 -38v-10h-128v14c0 34 3 68 28 89c27 24 70 25 110 25h9c48 0 90 -35 138 -35c19 0 21 19 21 39v10h128v-14c0 -34 -3 -68 -28 -89c-29 -26 -78 -26 -120 -26c-48 0 -89 35 -137 35zM379 533h-19c-46 0 -95 -9 -119 -47
c-23 -37 -27 -92 -27 -145c0 -14 1 -28 1 -42c1 -65 3 -140 34 -187c25 -38 74 -47 120 -47h19c46 0 95 9 119 47c23 37 27 92 27 145c0 14 -1 28 -1 42c-1 65 -3 140 -34 187c-25 38 -74 47 -120 47zM377 623c90 0 186 -1 249 -65c63 -65 65 -166 67 -259
c0 -16 1 -33 1 -49c0 -78 -8 -157 -58 -210c-60 -64 -156 -65 -246 -65h-19c-90 0 -186 1 -249 65c-63 65 -65 166 -67 259c0 16 -1 33 -1 49c0 78 8 157 58 210c60 64 156 65 246 65h19z" />
    <glyph glyph-name="uhungarumlaut" unicode="&#x171;" 
d="M619 598l12 -598h-145c-33 -22 -78 -25 -121 -25h-14c-76 0 -161 0 -215 50c-54 49 -56 128 -57 200l-7 373h160l7 -373c1 -44 2 -96 24 -128c18 -27 53 -32 86 -32h14c33 0 67 5 84 32c16 25 19 63 19 100v28l-7 373h160zM131 728l107 184h202l-160 -184h-149zM466 912
h202l-160 -184h-149z" />
    <glyph glyph-name="dcroat" unicode="&#x111;" horiz-adv-x="798" 
d="M684 0h-160v6c-39 -25 -92 -31 -142 -31h-18c-88 0 -182 1 -243 65c-62 65 -64 167 -66 259c0 16 -1 33 -1 50c0 78 7 156 56 209c58 64 153 65 241 65h18c50 0 103 -6 143 -31l-2 123h-152l-2 90h152l-3 145h160l3 -145h99l1 -90h-98zM371 533h-18
c-44 0 -91 -10 -113 -47s-26 -91 -26 -144c0 -15 1 -29 1 -43c1 -64 3 -140 32 -187c23 -37 71 -47 115 -47h18c44 0 91 10 113 47s25 91 25 144v43c-1 64 -3 140 -32 187c-23 37 -71 47 -115 47z" />
    <glyph glyph-name="K" unicode="K" horiz-adv-x="806" 
d="M88 920h160l9 -460l345 460h115l-264 -353l282 -567h-190l-206 415l-79 -105l7 -310h-161z" />
    <glyph glyph-name="zdotaccent" unicode="&#x17c;" horiz-adv-x="562" 
d="M28 508l-2 90h486l2 -102l-290 -406h299l1 -90h-486l-2 102l290 406h-298zM276 641h-16c-30 0 -61 1 -82 22c-24 24 -25 61 -25 98v9c0 27 3 54 21 73c22 23 58 23 90 23s67 0 90 -23c24 -24 25 -60 25 -97v-9c0 -27 -3 -55 -21 -74c-20 -21 -52 -22 -82 -22z" />
    <glyph glyph-name="period" unicode="." horiz-adv-x="403" 
d="M189 217h16c29 0 60 -1 80 -21c22 -22 23 -54 23 -88v-16c0 -26 -2 -52 -20 -70c-21 -22 -55 -22 -86 -22s-66 0 -88 22s-23 54 -23 87v16c0 26 2 53 20 71c19 20 49 21 78 21z" />
    <glyph glyph-name="k" unicode="k" horiz-adv-x="661" 
d="M80 950h160l19 -950h-160zM513 598h121l-223 -246l235 -352h-198l-151 226l-42 -47l-2 132z" />
    <glyph glyph-name="W" unicode="W" horiz-adv-x="1186" 
d="M-3 920h172l273 -694l92 260l-171 434h172l80 -204l72 204h99l-119 -336l141 -358l245 694h99l-325 -920h-102l-139 354l-125 -354h-102z" />
    <glyph glyph-name="X" unicode="X" horiz-adv-x="752" 
d="M12 920h190l188 -318l202 318h112l-260 -410l301 -510h-191l-209 355l-226 -355h-111l283 446z" />
    <glyph glyph-name="ogonek" unicode="&#x2db;" horiz-adv-x="304" 
d="M199 72l19 -72l-102 -108c-21 -24 -41 -50 -41 -81c0 -20 1 -41 16 -53c15 -13 40 -13 61 -13h10c21 0 46 0 61 13c12 11 14 28 14 45v7l76 -118c-41 -19 -99 -19 -150 -19h-9c-57 0 -123 0 -164 27c-35 23 -43 68 -43 111c0 79 101 97 150 153z" />
    <glyph glyph-name="agrave" unicode="&#xe0;" horiz-adv-x="714" 
d="M68 517c8 21 19 40 36 56c54 50 140 50 218 50h15c78 0 164 0 220 -50c55 -49 58 -128 59 -201l7 -372h-137c-38 -25 -88 -25 -136 -25h-15c-76 0 -164 0 -220 40c-52 37 -58 105 -58 172c0 56 8 114 52 146c51 38 134 39 207 39h26c39 0 79 0 114 -13v13
c-1 45 -3 97 -26 129c-20 28 -57 32 -91 32h-15c-34 0 -71 -4 -90 -32c-8 -12 -13 -26 -16 -42zM94 912h208l125 -184h-154zM352 282h-31c-30 0 -62 -1 -82 -21c-19 -18 -22 -45 -22 -72v-8c0 -36 1 -71 25 -94c23 -22 58 -22 91 -22h15c33 0 69 0 91 22c19 18 21 44 21 71
v8c0 36 -1 72 -25 95c-21 20 -53 21 -83 21z" />
    <glyph glyph-name="aogonek" unicode="&#x105;" horiz-adv-x="714" 
d="M68 517c8 21 19 40 36 56c54 50 140 50 218 50h15c78 0 164 0 220 -50c55 -49 58 -128 59 -201l7 -358l4 -14l-103 -108c-21 -24 -41 -50 -41 -81c0 -20 1 -41 16 -53c15 -13 40 -13 61 -13h10c21 0 46 0 61 13c12 11 14 28 14 45v7l76 -118c-41 -19 -98 -19 -149 -19
h-10c-57 0 -123 0 -164 27c-35 23 -43 68 -43 111c0 79 101 97 150 153l34 36h-53c-38 -25 -88 -25 -136 -25h-15c-76 0 -164 0 -220 40c-52 37 -58 105 -58 172c0 56 8 114 52 146c51 38 134 39 207 39h26c39 0 79 0 114 -13v13c-1 45 -3 97 -26 129c-20 28 -57 32 -91 32
h-15c-34 0 -71 -4 -90 -32c-8 -12 -13 -26 -16 -42zM352 282h-31c-30 0 -62 -1 -82 -21c-19 -18 -22 -45 -22 -72v-8c0 -36 1 -71 25 -94c23 -22 58 -22 91 -22h15c33 0 69 0 91 22c19 18 21 44 21 71v8c0 36 -1 72 -25 95c-21 20 -53 21 -83 21z" />
    <glyph glyph-name="quotedbl" unicode="&#x22;" horiz-adv-x="448" 
d="M27 920h160l6 -299h-160zM384 920l6 -299h-160l-6 299h160z" />
    <glyph glyph-name="t" unicode="t" horiz-adv-x="410" 
d="M33 508l-2 90h82l-7 352h160l7 -352h83l2 -90h-83l10 -508h-160l-10 508h-82z" />
    <glyph glyph-name="question" unicode="?" horiz-adv-x="669" 
d="M232 355l-3 150h87c33 0 68 7 84 35c16 27 19 68 19 108v34c0 51 -2 104 -24 138c-18 28 -53 35 -86 35h-14c-33 0 -68 -7 -84 -35c-8 -13 -12 -29 -15 -47l-156 38c7 30 19 59 41 81c52 53 135 53 212 53h14c77 0 161 0 215 -53s55 -136 57 -212c0 -13 1 -26 1 -39
c0 -64 -7 -129 -50 -173c-36 -36 -86 -47 -139 -51l1 -62h-160zM307 217h16c29 0 59 -1 79 -21c23 -23 24 -59 24 -95v-9c0 -26 -2 -52 -20 -70c-21 -22 -56 -22 -87 -22s-65 0 -87 22c-23 23 -24 58 -24 94v9c0 26 2 53 20 71c19 20 50 21 79 21z" />
    <glyph glyph-name="Adieresis" unicode="&#xc4;" horiz-adv-x="844" 
d="M383 998c0 -30 -5 -60 -26 -78h97l374 -920h-173l-88 218h-374l-81 -218h-97l336 915c-19 -12 -45 -13 -69 -13h-18c-30 0 -62 1 -83 22c-23 23 -24 56 -24 91v16c0 27 3 54 21 73c22 23 58 23 90 23s67 0 90 -23c24 -24 25 -60 25 -97v-9zM554 902h-16
c-30 0 -62 1 -83 22c-23 23 -24 56 -24 91v16c0 27 2 54 20 73c22 23 58 23 90 23s68 0 91 -23s24 -56 24 -90v-16c0 -27 -3 -55 -21 -74c-20 -21 -51 -22 -81 -22zM530 308l-160 394l-145 -394h305z" />
    <glyph glyph-name="five" unicode="5" horiz-adv-x="730" 
d="M75 79l139 72c4 -16 10 -30 18 -42c24 -36 71 -44 115 -44h18c44 0 90 8 113 44c22 35 25 87 25 137v29c0 67 -1 141 -25 188c-15 31 -49 44 -84 44h-14c-52 0 -93 -36 -103 -82l1 -51h-160c-4 182 -7 364 -11 546h463l2 -90h-303l6 -270c28 23 64 37 104 37h13
c78 0 162 -3 213 -62c54 -62 56 -161 58 -249c0 -15 1 -31 1 -47c0 -75 -7 -151 -56 -202c-59 -62 -154 -62 -241 -62h-18c-87 0 -182 0 -244 62c-12 13 -22 27 -30 42z" />
    <glyph glyph-name="Aring" unicode="&#xc5;" horiz-adv-x="844" 
d="M15 0l337 920h102l374 -920h-173l-88 218h-374l-81 -218h-97zM530 308l-160 394l-145 -394h305zM407 1143h-6c-14 0 -29 -1 -37 -12c-7 -10 -8 -26 -8 -40v-10c0 -19 1 -37 10 -50c8 -11 24 -12 38 -12h5c14 0 29 1 37 12c7 10 9 26 9 40c0 22 0 45 -11 60
c-8 11 -23 12 -37 12zM406 1203c43 0 92 0 123 -24s32 -67 32 -109c0 -33 -3 -67 -28 -87c-30 -24 -79 -24 -122 -24h-6c-43 0 -92 0 -123 24s-33 67 -33 109c0 33 4 67 29 87c30 24 79 24 122 24h6z" />
    <glyph glyph-name="z" unicode="z" horiz-adv-x="562" 
d="M28 508l-2 90h486l2 -102l-290 -406h299l1 -90h-486l-2 102l290 406h-298z" />
    <glyph glyph-name="Ccedilla" unicode="&#xc7;" horiz-adv-x="1026" 
d="M968 193c-12 -45 -32 -87 -63 -121c-82 -91 -212 -97 -337 -97l-11 -29c52 0 108 -3 145 -27c36 -24 43 -71 43 -117c0 -40 -7 -80 -39 -102c-40 -27 -106 -27 -163 -27h-9c-80 0 -170 3 -195 65l118 49c2 -11 5 -22 14 -29c15 -13 40 -13 61 -13h10c21 0 46 0 61 13
c12 11 14 28 14 45c0 22 -1 45 -17 58c-15 13 -40 13 -61 13h-128l38 102c-109 3 -219 17 -293 96c-91 97 -94 250 -97 388c0 25 -1 50 -1 75c0 116 11 233 83 313c85 95 224 97 354 97h36c130 0 270 -2 359 -97c32 -34 53 -76 67 -121l-152 -45c-9 35 -22 67 -42 94
c-51 69 -144 79 -230 79h-36c-86 0 -179 -10 -227 -79c-44 -63 -51 -157 -51 -248v-68c2 -110 5 -237 64 -316c51 -69 143 -79 229 -79h37c86 0 178 10 226 79c19 27 31 59 39 94z" />
    <glyph glyph-name="Idotaccent" unicode="&#x130;" horiz-adv-x="403" 
d="M299 998c0 -36 -7 -70 -35 -85l18 -913h-160l-19 920c-28 22 -29 63 -29 103v8c0 27 3 54 21 73c22 23 57 23 89 23s68 0 91 -23s24 -56 24 -90v-16z" />
    <glyph glyph-name="sterling" unicode="&#xa3;" horiz-adv-x="730" 
d="M86 90c57 0 57 77 57 138c0 16 -1 32 -1 47l-2 140h-60l-2 90h60l-3 153c0 15 -1 30 -1 45c0 68 6 138 44 185c44 54 122 57 193 57h10c71 0 148 -3 194 -57c20 -23 32 -51 40 -82l-154 -35c-3 17 -7 32 -12 45c-11 25 -38 39 -66 39h-11c-28 0 -54 -14 -64 -39
c-11 -29 -14 -72 -14 -114c0 -15 1 -30 1 -44l3 -153h262l2 -90h-262l3 -140v-43c0 -50 -3 -101 -23 -142h360l1 -90h-553c-1 30 -1 60 -2 90z" />
    <glyph glyph-name="eight" unicode="8" horiz-adv-x="760" 
d="M370 65h18c43 0 88 4 113 37c22 30 26 75 26 118v21c0 59 -2 121 -32 160c-26 33 -72 37 -115 37h-18c-43 0 -88 -4 -113 -37c-22 -30 -26 -75 -26 -118v-21c0 -59 2 -121 32 -160c26 -33 72 -37 115 -37zM371 -25c-86 0 -181 0 -243 55c-63 58 -65 148 -65 240v17
c0 70 7 140 56 186c11 11 25 19 39 26c-49 49 -51 124 -52 193c0 13 -1 24 -1 37c0 61 6 123 47 165c49 51 128 51 200 51h18c72 0 151 0 202 -51c53 -52 55 -132 55 -213v-25c0 -58 -6 -117 -45 -157c14 -7 28 -15 40 -26c63 -58 65 -148 65 -240v-17
c0 -70 -8 -140 -57 -186c-59 -55 -154 -55 -240 -55h-19zM379 528c29 0 59 8 72 33c14 25 16 63 16 99v14c0 53 -1 111 -22 148c-14 25 -44 33 -73 33h-18c-29 0 -59 -8 -72 -33c-14 -25 -16 -63 -16 -99v-26c0 -50 1 -102 21 -136c14 -25 44 -33 73 -33h19z" />
    <glyph glyph-name="Ntilde" unicode="&#xd1;" horiz-adv-x="950" 
d="M106 0l-18 920h102l488 -669l-13 669h160l19 -920h-102l-489 669l14 -669h-161zM391 1042c-19 0 -21 -18 -21 -38v-10h-128v14c0 34 3 68 28 89c27 24 70 25 110 25h9c48 0 90 -35 138 -35c19 0 21 19 21 39v10h128v-14c0 -34 -3 -68 -28 -89c-29 -26 -78 -26 -120 -26
c-48 0 -89 35 -137 35z" />
    <glyph glyph-name="Z" unicode="Z" horiz-adv-x="775" 
d="M21 830l-1 90h699l2 -102l-503 -728h517l2 -90h-699l-2 102l503 728h-518z" />
    <glyph glyph-name="T" unicode="T" horiz-adv-x="699" 
d="M18 830l-1 90h629l2 -90h-235l17 -830h-160l-17 830h-235z" />
    <glyph glyph-name="parenleft" unicode="(" horiz-adv-x="418" 
d="M322 880c-85 -94 -102 -283 -102 -434c0 -35 1 -70 2 -105c3 -156 6 -316 70 -461c13 -29 30 -56 51 -78l-60 -100c-45 27 -83 64 -111 110c-97 157 -106 346 -110 529c-1 28 -1 56 -1 84c0 156 12 312 89 445c26 46 64 83 107 110z" />
    <glyph glyph-name="Eacute" unicode="&#xc9;" horiz-adv-x="707" 
d="M106 0l-18 920h547l2 -90h-387l6 -325h307l2 -90h-307l7 -325h387l2 -90h-548zM383 1173h208l-172 -184h-153z" />
    <glyph glyph-name="zcaron" unicode="&#x17e;" horiz-adv-x="562" 
d="M28 508l-2 90h486l2 -102l-290 -406h299l1 -90h-486l-2 102l290 406h-298zM309 912h142l-89 -184h-191l-97 184h142l48 -60z" />
    <glyph glyph-name="IJ" unicode="&#x132;" horiz-adv-x="920" 
d="M802 920l14 -667v-41c0 -68 -6 -135 -52 -181c-55 -56 -145 -56 -226 -56h-15c-80 0 -168 0 -226 54l107 115c4 -16 10 -29 18 -41c21 -31 61 -38 99 -38h15c38 0 78 7 98 38c19 30 22 73 22 116v34l-14 667h160zM122 0l-19 920h160l19 -920h-160z" />
    <glyph glyph-name="guilsinglleft" unicode="&#x2039;" horiz-adv-x="418" 
d="M238 299l112 -299h-176l-112 299l100 299h176z" />
    <glyph glyph-name="quotedblbase" unicode="&#x201e;" horiz-adv-x="699" 
d="M97 -184l98 299h168l-141 -299h-125zM458 115h166l-141 -299h-123z" />
    <glyph glyph-name="abreve" unicode="&#x103;" horiz-adv-x="714" 
d="M68 517c8 21 19 40 36 56c54 50 140 50 218 50h15c78 0 164 0 220 -50c55 -49 58 -128 59 -201l7 -372h-137c-38 -25 -88 -25 -136 -25h-15c-76 0 -164 0 -220 40c-52 37 -58 105 -58 172c0 56 8 114 52 146c51 38 134 39 207 39h26c39 0 79 0 114 -13v13
c-1 45 -3 97 -26 129c-20 28 -57 32 -91 32h-15c-34 0 -71 -4 -90 -32c-8 -12 -13 -26 -16 -42zM542 893c0 -4 1 -8 1 -12c0 -44 -7 -89 -41 -115c-42 -32 -110 -32 -169 -32h-11c-59 0 -128 0 -171 32c-38 28 -44 79 -45 127h128c0 -23 1 -47 18 -63s44 -16 68 -16h11
c24 0 51 0 68 16c14 13 15 32 15 52v11h128zM352 282h-31c-30 0 -62 -1 -82 -21c-19 -18 -22 -45 -22 -72v-8c0 -36 1 -71 25 -94c23 -22 58 -22 91 -22h15c33 0 69 0 91 22c19 18 21 44 21 71v8c0 36 -1 72 -25 95c-21 20 -53 21 -83 21z" />
    <glyph glyph-name="G" unicode="G" horiz-adv-x="1087" 
d="M996 0h-161l-1 49c-70 -71 -180 -74 -283 -74h-37c-130 0 -269 2 -358 97c-91 97 -94 250 -97 388c0 25 -1 50 -1 75c0 116 11 233 83 313c85 95 224 97 354 97h36c130 0 270 -2 359 -97c22 -23 38 -50 51 -78l-144 -62c-9 25 -19 48 -34 68c-51 69 -144 79 -230 79h-36
c-86 0 -179 -10 -227 -79c-44 -63 -51 -157 -51 -248v-68c2 -110 5 -237 64 -316c51 -69 143 -79 229 -79h37c83 0 173 2 227 63c46 52 52 129 52 204v49l-1 34h-303l-2 90h464z" />
    <glyph glyph-name="h" unicode="h" horiz-adv-x="692" 
d="M99 0l-19 950h160l7 -343c31 14 69 16 106 16h11c67 0 140 -1 186 -50c47 -50 50 -129 51 -200l7 -373h-160l-8 373c-1 43 -1 96 -16 128c-10 21 -34 32 -58 32h-11c-33 0 -68 -5 -85 -32c-16 -25 -19 -63 -19 -100c0 -10 1 -19 1 -28l7 -373h-160z" />
    <glyph glyph-name="aacute" unicode="&#xe1;" horiz-adv-x="714" 
d="M68 517c8 21 19 40 36 56c54 50 140 50 218 50h15c78 0 164 0 220 -50c55 -49 58 -128 59 -201l7 -372h-137c-38 -25 -88 -25 -136 -25h-15c-76 0 -164 0 -220 40c-52 37 -58 105 -58 172c0 56 8 114 52 146c51 38 134 39 207 39h26c39 0 79 0 114 -13v13
c-1 45 -3 97 -26 129c-20 28 -57 32 -91 32h-15c-34 0 -71 -4 -90 -32c-8 -12 -13 -26 -16 -42zM345 912h208l-172 -184h-153zM352 282h-31c-30 0 -62 -1 -82 -21c-19 -18 -22 -45 -22 -72v-8c0 -36 1 -71 25 -94c23 -22 58 -22 91 -22h15c33 0 69 0 91 22
c19 18 21 44 21 71v8c0 36 -1 72 -25 95c-21 20 -53 21 -83 21z" />
    <glyph glyph-name="eacute" unicode="&#xe9;" horiz-adv-x="752" 
d="M670 75c-8 -16 -19 -32 -33 -45c-61 -55 -159 -55 -247 -55h-19c-90 0 -186 1 -249 65c-63 65 -65 166 -67 259c0 16 -1 33 -1 49c0 78 8 157 58 210c60 64 156 65 246 65h19c90 0 186 -1 249 -65c63 -65 65 -166 67 -259l1 -45h-478c2 -52 9 -106 33 -142
c25 -38 74 -47 120 -47h19c44 0 92 3 119 37c10 13 17 29 21 46zM383 912h208l-172 -184h-153zM532 344c-2 52 -9 106 -33 142c-25 38 -74 47 -120 47h-19c-46 0 -95 -9 -119 -47c-22 -36 -27 -90 -27 -142h318z" />
    <glyph glyph-name="Scaron" unicode="&#x160;" horiz-adv-x="790" 
d="M65 142l157 27c4 -26 13 -50 29 -68c31 -35 82 -36 129 -36h20c48 0 101 0 130 33c23 27 27 74 27 118c0 80 -15 153 -83 176l-174 54c-114 39 -219 119 -221 234c0 14 -1 27 -1 41c0 67 7 135 50 175c53 49 152 49 236 49h17c83 0 175 0 234 -53c28 -25 43 -58 51 -94
l-154 -41c-4 24 -11 46 -24 63c-24 31 -66 35 -105 35h-17c-40 0 -83 -1 -106 -32c-18 -25 -22 -69 -22 -111c0 -11 1 -22 1 -32c1 -63 32 -124 90 -144l174 -54c112 -38 212 -121 214 -235c0 -14 1 -27 1 -41c0 -69 -7 -139 -55 -181c-58 -50 -169 -50 -261 -50h-20
c-91 0 -193 0 -258 54c-35 29 -51 69 -59 113zM419 1173h143l-89 -184h-192l-97 184h143l47 -60z" />
    <glyph glyph-name="greater" unicode="&#x3e;" horiz-adv-x="745" 
d="M469 299l-418 169l-3 170l628 -254l4 -170l-618 -254l-4 170z" />
    <glyph glyph-name="oe" unicode="&#x153;" horiz-adv-x="1201" 
d="M1119 75c-8 -16 -18 -32 -32 -45c-59 -55 -154 -55 -240 -55h-18c-78 0 -161 1 -221 47c-58 -46 -142 -47 -220 -47h-18c-87 0 -182 1 -242 65c-61 65 -64 167 -66 259v50c0 78 7 156 55 209c58 64 153 65 240 65h18c78 0 161 -1 221 -47c58 46 142 47 220 47h18
c87 0 182 -1 242 -65c61 -65 64 -167 66 -259l1 -45h-460c2 -52 9 -106 31 -142c23 -37 69 -47 113 -47h18c42 0 88 4 112 37c9 13 15 28 19 45zM377 533h-18c-44 0 -90 -10 -112 -47c-21 -37 -25 -90 -25 -143c0 -15 1 -30 1 -44c1 -64 2 -140 31 -187
c23 -37 70 -47 114 -47h18c44 0 90 10 112 47c21 37 24 90 24 143v44c-1 64 -3 140 -32 187c-23 37 -69 47 -113 47zM980 344c-2 52 -8 106 -30 142c-23 37 -70 47 -114 47h-18c-44 0 -89 -10 -111 -47c-21 -36 -25 -90 -25 -142h298z" />
    <glyph glyph-name="Nacute" unicode="&#x143;" horiz-adv-x="950" 
d="M106 0l-18 920h102l488 -669l-13 669h160l19 -920h-102l-489 669l14 -669h-161zM478 1173h208l-172 -184h-153z" />
    <glyph glyph-name="lacute" unicode="&#x13a;" horiz-adv-x="343" 
d="M91 0l-19 950h160l19 -950h-160zM197 1188h207l-171 -184h-154z" />
    <glyph glyph-name="less" unicode="&#x3c;" horiz-adv-x="745" 
d="M264 299l417 -169l4 -170l-628 254l-4 170l618 254l4 -170z" />
    <glyph glyph-name="asciicircum" unicode="^" horiz-adv-x="821" 
d="M396 736l-173 -368h-179l258 552h180l280 -552h-179z" />
    <glyph glyph-name="seven" unicode="7" 
d="M44 830l-2 90h586l2 -102l-301 -818h-169l305 830h-421z" />
    <glyph glyph-name="Ocircumflex" unicode="&#xd4;" horiz-adv-x="1064" 
d="M533 855h-36c-86 0 -179 -10 -227 -79c-44 -63 -51 -157 -51 -248v-68c2 -110 5 -237 64 -316c51 -69 143 -79 229 -79h37c86 0 178 10 226 79c44 63 52 157 52 248c0 23 -1 46 -1 68c-2 110 -4 237 -63 316c-51 69 -144 79 -230 79zM531 945c130 0 270 -2 359 -97
c91 -97 93 -250 96 -388c0 -25 1 -50 1 -75c0 -116 -10 -233 -82 -313c-85 -95 -224 -97 -354 -97h-37c-130 0 -269 2 -358 97c-91 97 -94 250 -97 388c0 25 -1 50 -1 75c0 116 11 233 83 313c85 95 224 97 354 97h36zM516 1049l-45 -60h-142l89 184h192l96 -184h-142z" />
    <glyph glyph-name="F" unicode="F" horiz-adv-x="684" 
d="M106 0l-18 920h547l2 -90h-387l6 -325h307l2 -90h-307l9 -415h-161z" />
    <glyph glyph-name="tilde" unicode="&#x2dc;" horiz-adv-x="319" 
d="M75 789c-19 0 -21 -18 -21 -38c0 -4 1 -7 1 -10h-129v14c0 34 3 68 28 89c27 24 71 25 111 25h9c48 0 89 -35 137 -35c19 0 21 19 21 39v10h128c0 -5 1 -9 1 -14c0 -34 -4 -68 -29 -89c-29 -26 -77 -26 -119 -26c-48 0 -90 35 -138 35z" />
    <glyph glyph-name="iacute" unicode="&#xed;" horiz-adv-x="289" 
d="M64 0l-12 598h161l11 -598h-160zM148 912h207l-171 -184h-154z" />
    <glyph glyph-name="Otilde" unicode="&#xd5;" horiz-adv-x="1064" 
d="M448 1042c-19 0 -21 -18 -21 -38v-10h-128v14c0 34 3 68 28 89c27 24 70 25 110 25h9c48 0 90 -35 138 -35c19 0 21 19 21 39v10h128v-14c0 -34 -3 -68 -28 -89c-29 -26 -78 -26 -120 -26c-48 0 -89 35 -137 35zM533 855h-36c-86 0 -179 -10 -227 -79
c-44 -63 -51 -157 -51 -248v-68c2 -110 5 -237 64 -316c51 -69 143 -79 229 -79h37c86 0 178 10 226 79c44 63 52 157 52 248c0 23 -1 46 -1 68c-2 110 -4 237 -63 316c-51 69 -144 79 -230 79zM531 945c130 0 270 -2 359 -97c91 -97 93 -250 96 -388c0 -25 1 -50 1 -75
c0 -116 -10 -233 -82 -313c-85 -95 -224 -97 -354 -97h-37c-130 0 -269 2 -358 97c-91 97 -94 250 -97 388c0 25 -1 50 -1 75c0 116 11 233 83 313c85 95 224 97 354 97h36z" />
    <glyph glyph-name="parenright" unicode=")" horiz-adv-x="418" 
d="M86 -198c82 94 98 282 98 431c0 36 0 72 -1 108c-3 156 -7 316 -68 461c-12 29 -29 55 -50 78l61 100c44 -27 81 -64 109 -110c95 -158 104 -346 108 -529c1 -29 1 -58 1 -87c0 -155 -13 -309 -88 -442c-26 -46 -61 -83 -104 -110z" />
    <glyph glyph-name="germandbls" unicode="&#xdf;" horiz-adv-x="752" 
d="M91 0l-14 703v32c0 60 5 122 48 162c51 48 134 48 208 48h13c74 0 156 0 209 -48c55 -49 57 -127 57 -207v-24c0 -54 -5 -108 -36 -147c12 -7 24 -16 34 -26c58 -58 59 -147 61 -230c0 -15 1 -31 1 -46c0 -68 -7 -137 -46 -184c-46 -55 -123 -58 -196 -58h-16
c-56 0 -116 1 -163 25h-160zM308 551h73c24 0 48 9 58 30c11 23 13 58 13 91v23c0 48 -1 98 -23 130c-17 25 -50 30 -81 30h-13c-31 0 -64 -5 -80 -30c-15 -24 -18 -60 -18 -95v-27l12 -596l75 32c3 -13 6 -24 11 -34c14 -28 46 -40 77 -40h16c29 0 58 14 69 40
c12 29 15 73 15 115c0 15 -1 29 -1 43c-1 55 -2 118 -28 158c-21 32 -61 40 -100 40h-73z" />
    <glyph glyph-name="a" unicode="a" horiz-adv-x="714" 
d="M68 517c8 21 19 40 36 56c54 50 140 50 218 50h15c78 0 164 0 220 -50c55 -49 58 -128 59 -201l7 -372h-137c-38 -25 -88 -25 -136 -25h-15c-76 0 -164 0 -220 40c-52 37 -58 105 -58 172c0 56 8 114 52 146c51 38 134 39 207 39h26c39 0 79 0 114 -13v13
c-1 45 -3 97 -26 129c-20 28 -57 32 -91 32h-15c-34 0 -71 -4 -90 -32c-8 -12 -13 -26 -16 -42zM352 282h-31c-30 0 -62 -1 -82 -21c-19 -18 -22 -45 -22 -72v-8c0 -36 1 -71 25 -94c23 -22 58 -22 91 -22h15c33 0 69 0 91 22c19 18 21 44 21 71v8c0 36 -1 72 -25 95
c-21 20 -53 21 -83 21z" />
    <glyph glyph-name="scedilla" unicode="&#x15f;" horiz-adv-x="608" 
d="M47 106l158 22c2 -16 7 -32 18 -43c19 -19 47 -20 74 -20h12c27 0 58 0 75 18c14 15 15 40 15 64c0 40 -3 83 -38 93l-107 32c-92 25 -184 76 -186 166v28c0 47 4 95 38 123c40 34 118 34 182 34h8c63 0 134 0 179 -37c26 -21 37 -51 42 -84l-158 -23c-2 13 -5 26 -11 35
c-11 16 -32 19 -51 19h-8c-19 0 -40 -1 -50 -17c-9 -14 -11 -37 -11 -59c0 -45 10 -84 49 -95l107 -32c89 -24 173 -80 175 -167v-24c0 -50 -5 -100 -43 -129c-40 -30 -111 -34 -176 -35l-11 -29c52 0 108 -3 145 -27c36 -24 43 -71 43 -117c0 -40 -7 -80 -39 -102
c-40 -27 -106 -27 -163 -27h-9c-80 0 -170 3 -195 65l118 49c2 -11 5 -22 14 -29c15 -13 40 -13 61 -13h10c21 0 46 0 61 13c12 11 14 28 14 45c0 22 -1 45 -17 58c-15 13 -40 13 -61 13h-128l39 103c-47 3 -93 12 -126 36c-30 22 -43 56 -49 93z" />
    <glyph glyph-name="ugrave" unicode="&#xf9;" 
d="M619 598l12 -598h-145c-33 -22 -78 -25 -121 -25h-14c-76 0 -161 0 -215 50c-54 49 -56 128 -57 200l-7 373h160l7 -373c1 -44 2 -96 24 -128c18 -27 53 -32 86 -32h14c33 0 67 5 84 32c16 25 19 63 19 100v28l-7 373h160zM110 912h207l125 -184h-154z" />
    <glyph glyph-name="uacute" unicode="&#xfa;" 
d="M619 598l12 -598h-145c-33 -22 -78 -25 -121 -25h-14c-76 0 -161 0 -215 50c-54 49 -56 128 -57 200l-7 373h160l7 -373c1 -44 2 -96 24 -128c18 -27 53 -32 86 -32h14c33 0 67 5 84 32c16 25 19 63 19 100v28l-7 373h160zM360 912h208l-171 -184h-154z" />
    <glyph glyph-name="Ncaron" unicode="&#x147;" horiz-adv-x="950" 
d="M106 0l-18 920h102l488 -669l-13 669h160l19 -920h-102l-489 669l14 -669h-161zM503 1173h142l-89 -184h-192l-96 184h142l48 -60z" />
    <glyph glyph-name="one" unicode="1" horiz-adv-x="517" 
d="M216 0l-14 702l-153 -100l-4 180l211 138h102l18 -920h-160z" />
    <glyph glyph-name="f" unicode="f" horiz-adv-x="448" 
d="M292 885c-11 0 -12 -19 -12 -35v-37l5 -215h63l2 -90h-63l10 -508h-161l-10 508h-63l-2 90h64l-5 215v22c0 40 4 81 32 108c34 32 88 32 138 32h34l-15 -162v14c0 24 -1 58 -15 58h-2z" />
    <glyph glyph-name="Ugrave" unicode="&#xd9;" horiz-adv-x="903" 
d="M783 920l12 -624c0 -15 1 -30 1 -45c0 -79 -8 -159 -63 -212c-66 -64 -173 -64 -270 -64h-22c-97 0 -203 0 -272 64c-68 64 -71 164 -73 257l-13 624h161l12 -624c1 -65 2 -139 39 -185c33 -42 91 -46 144 -46h23c53 0 110 4 141 46c28 37 32 93 32 147v38l-13 624h161z
M204 1173h208l124 -184h-153z" />
    <glyph glyph-name="macron" unicode="&#xaf;" horiz-adv-x="319" 
d="M-28 765l-2 80h345l2 -80h-345z" />
    <glyph glyph-name="dash" horiz-adv-x="479" 
d="M56 254l-2 90h357l2 -90h-357z" />
    <glyph glyph-name="thorn" unicode="&#xfe;" horiz-adv-x="775" 
d="M97 -300l-24 1220h160l7 -328c39 25 91 31 141 31h18c88 0 183 -1 244 -65c62 -65 63 -167 65 -259c0 -16 1 -33 1 -50c0 -78 -7 -156 -56 -209c-58 -64 -153 -65 -241 -65h-18c-50 0 -103 6 -143 31l6 -306h-160zM401 533h-18c-44 0 -91 -10 -113 -47s-25 -91 -25 -144
v-44c1 -64 4 -140 33 -186c23 -37 70 -47 114 -47h19c44 0 91 10 113 47s25 91 25 144c0 15 -1 29 -1 43c-1 64 -3 140 -32 187c-23 37 -71 47 -115 47z" />
    <glyph glyph-name="space" unicode=" " horiz-adv-x="456" 
 />
    </font>
</defs>
</svg>
